<svg width="277" height="210" viewBox="0 0 277 210" fill="none" xmlns="http://www.w3.org/2000/svg">
<path d="M237.114 16.8083C261.672 7.83182 171.848 1 171.848 1C171.848 1 160.783 17.0473 130.959 9.45558C123.433 7.53974 80.3896 11.4753 73.3778 9.45559C45.6335 1.4638 34.2397 30.0431 34.2397 30.0431L15.3676 35.9252L2 50.263H73.3778L126.455 52.8364L208.807 59C208.807 59 288.191 58.0145 274.388 41.2559C268.528 34.1416 264.6 32.853 266.995 25.6315C268.589 20.8235 208.806 23.0581 208.806 23.0581C208.806 23.0581 228.921 19.8029 237.114 16.8083Z" stroke="#444746"/>
<path d="M142.002 62.3286V62.2113L142.054 62.1062L155.193 35.653H146.05L135.82 46.1963L135.258 46.7758L134.99 46.0143L129.173 29.5H121.544L125.206 73.0544L125.207 73.0753V73.0963V209.5H142.002V62.3286Z" stroke="#444746"/>
</svg>
