<svg width="277" height="210" viewBox="0 0 277 210" fill="none" xmlns="http://www.w3.org/2000/svg">
<path d="M237.114 16.8083C261.672 7.83182 171.848 1 171.848 1C171.848 1 160.783 17.0473 130.959 9.45558C123.433 7.53974 80.3896 11.4753 73.3778 9.45559C45.6335 1.4638 34.2397 30.0431 34.2397 30.0431L15.3676 35.9252L2 50.263H73.3778L126.455 52.8364L208.807 59C208.807 59 288.191 58.0145 274.388 41.2559C268.528 34.1416 264.6 32.853 266.995 25.6315C268.589 20.8235 208.806 23.0581 208.806 23.0581C208.806 23.0581 228.921 19.8029 237.114 16.8083Z" stroke="#444746"/>
<path d="M142.002 62.3286V62.2113L142.054 62.1062L155.193 35.653H146.05L135.82 46.1963L135.258 46.7758L134.99 46.0143L129.173 29.5H121.544L125.206 73.0544L125.207 73.0753V73.0963V209.5H142.002V62.3286Z" stroke="#444746"/>
<path d="M187.376 83.5338C195.98 73.0097 164.509 65 164.509 65C164.509 65 160.632 83.8141 150.183 74.9134C147.546 72.6673 132.465 77.2814 130.008 74.9134C120.288 65.5438 116.296 99.0505 116.296 99.0505L109.684 105.947L105 122.757H130.008L148.605 125.774L177.458 133C177.458 133 205.271 131.845 200.435 112.197C198.382 103.856 197.006 102.345 197.845 93.8783C198.403 88.2413 177.458 90.8612 177.458 90.8612C177.458 90.8612 184.505 87.0447 187.376 83.5338Z" stroke="#444746"/>
<path d="M147.702 119.439V119.291L147.782 119.167L158.08 103.273H151.126L142.405 115.294L141.723 116.234L141.509 115.092L138.585 99.5H129.111L134.456 125.943L134.466 125.992V126.042V209.5H147.702V119.439Z" stroke="#444746"/>
<rect x="71.5" y="109.5" width="11" height="100" stroke="#444746"/>
<path d="M39 107.973C39 107.973 45.7842 97.2657 54.6507 99.1248C57.6569 99.7551 57.4556 101.636 60.7484 101.798C65.542 102.033 62.2628 99.0777 63.7972 97.0049C65.7675 94.3433 70.7105 96.9202 75.1795 94.9772C80.4463 92.6872 88.3911 90 88.3911 90C103.767 102.012 96.9253 105.259 96.7246 110.462C95.9969 129.325 87.5263 110.194 71.9274 119.494H39V107.973Z" stroke="#444746"/>
</svg>
