<svg width="276" height="211" viewBox="0 0 276 211" fill="none" xmlns="http://www.w3.org/2000/svg">
<path d="M188.376 84.5338C196.98 74.0097 165.509 66 165.509 66C165.509 66 161.632 84.8141 151.183 75.9134C148.546 73.6673 133.465 78.2814 131.008 75.9134C121.288 66.5438 117.296 100.051 117.296 100.051L110.684 106.947L106 123.757H131.008L149.605 126.774L178.458 134C178.458 134 206.271 132.845 201.435 113.197C199.382 104.856 198.006 103.345 198.845 94.8783C199.403 89.2413 178.458 91.8612 178.458 91.8612C178.458 91.8612 185.505 88.0447 188.376 84.5338Z" stroke="#444746"/>
<path d="M148.702 120.439V120.291L148.782 120.167L159.08 104.273H152.126L143.405 116.294L142.723 117.234L142.509 116.092L139.585 100.5H130.111L135.456 126.943L135.466 126.992V127.042V210.5H148.702V120.439Z" stroke="#444746"/>
<path d="M240.17 127.041C240.17 127.041 227.086 118.741 218.581 122.057C215.697 123.181 222 111.005 207.662 111.005C203.045 111.005 200 134 195.254 124.008C186.308 105.17 175.65 130.725 163.738 122.057C152.075 120.757 157.534 154.997 165.227 150.013C172.92 145.028 174.161 153.046 174.161 153.046L160.798 169H193.198H224.784C253.499 169 258.685 169.329 240.17 127.041Z" stroke="#444746"/>
<path d="M199.889 177.976V131.609H196.554L193.998 157.549L193.029 157.668L182.01 126.724L176.618 129.728L187.276 158.325L187.308 158.41V158.5V210.5H199.889V195.78V195.683L199.926 195.592L221.257 143.155H215.905L200.849 178.174L199.889 177.976Z" stroke="#444746"/>
<path d="M71.2788 118.68C64.6334 111.056 88.9398 105.254 88.9398 105.254C88.9398 105.254 93.1878 120.197 100.004 112.435C114 96.4998 124.863 119.574 126.177 129.921L131.284 134.917L134.901 147.095H115.586L103 156.5L74.3903 141.951C74.3903 141.951 57.4572 153.679 61.1924 139.445C62.7781 133.402 63.6479 133.633 63 127.5C62.5686 123.416 72.5 121.5 72.5 121.5C72.5 121.5 73.4958 121.224 71.2788 118.68Z" stroke="#444746"/>
<path d="M92.131 147V146.976L92.1286 146.952L90.0508 125.5H93.5435L96.0595 153.087L97.054 153.1L100.697 121.981H105.358L104.189 132.37L102.958 143.314L102.954 143.342V143.37V210.5H92.131V147Z" stroke="#444746"/>
<path d="M40 109.733C40 109.733 46.7842 99.026 55.6507 100.885C58.6569 101.515 58.4556 103.396 61.7484 103.558C66.542 103.793 63.2628 100.838 64.7972 98.7652C66.7675 96.1035 71.7105 98.6805 76.1795 96.7374C81.4463 94.4475 89.3911 91.7603 89.3911 91.7603C104.767 103.772 97.9253 107.019 97.7246 112.222C96.9969 131.085 88.5263 111.954 72.9274 121.255H40V109.733Z" stroke="#444746"/>
<path d="M237.114 16.8083C261.672 7.83182 171.848 1 171.848 1C171.848 1 160.783 17.0473 130.959 9.45558C123.433 7.53974 80.3895 11.4753 73.3777 9.45559C45.6334 1.4638 34.2396 30.0431 34.2396 30.0431L15.3676 35.9252L1.99991 50.263H73.3777L148 60C163.784 59.7404 285.346 54.5605 274.388 41.2559C268.528 34.1416 264.6 32.853 266.995 25.6315C268.589 20.8235 208.806 23.0581 208.806 23.0581C208.806 23.0581 228.921 19.8029 237.114 16.8083Z" stroke="#444746"/>
<path d="M142.5 76.0027L142.5 75.9124L142.531 75.8276L157.284 35.653H147.503L135.395 51.3059L134.747 52.1446L134.512 51.1105L129.615 29.5H121.546L125.417 73.0521L125.419 73.0741V73.0963V210.5H143.228L142.5 76.0027Z" stroke="#444746"/>
</svg>
