<svg width="303" height="169" viewBox="0 0 303 169" fill="none" xmlns="http://www.w3.org/2000/svg">
<path d="M291.55 61.6118C298.142 52.8042 274.03 46.1008 274.03 46.1008C274.03 46.1008 271.06 61.8463 263.054 54.3974C261.033 52.5176 249.479 56.3791 247.597 54.3974C240.149 46.5559 237.09 74.5977 237.09 74.5977L232.024 80.3692L228.436 94.4372H247.597L261.845 96.9623L288.464 88.4945C288.464 88.4945 305.261 102.043 301.556 85.5996C299.983 78.6191 298.929 77.3547 299.571 70.269C299.999 65.5514 283.951 67.744 283.951 67.744C283.951 67.744 289.351 64.55 291.55 61.6118Z" fill="#F9FAEB"/>
<path d="M274.03 46.1008L273.539 46.0081L273.64 45.4733L274.164 45.6191L274.03 46.1008ZM291.55 61.6118L291.95 61.9114L291.55 61.6118ZM283.951 67.744L284.019 68.2394L283.697 67.3136L283.951 67.744ZM299.571 70.269L299.073 70.2239L299.571 70.269ZM301.556 85.5996L301.068 85.7095L301.556 85.5996ZM288.464 88.4945L288.312 88.0181L288.568 87.9366L288.777 88.1054L288.464 88.4945ZM261.845 96.9623L261.996 97.4387L261.879 97.4761L261.758 97.4546L261.845 96.9623ZM237.09 74.5977L237.587 74.6519L237.57 74.8088L237.466 74.9275L237.09 74.5977ZM247.597 54.3974L247.959 54.053L247.597 54.3974ZM263.054 54.3974L263.394 54.0313V54.0313L263.054 54.3974ZM232.024 80.3692L231.54 80.2456L231.569 80.1294L231.649 80.0393L232.024 80.3692ZM228.436 94.4372V94.9372H227.792L227.951 94.3136L228.436 94.4372ZM247.597 94.4372V93.9372H247.641L247.684 93.9449L247.597 94.4372ZM274.03 46.1008C274.164 45.6191 274.164 45.6192 274.164 45.6192C274.165 45.6193 274.165 45.6194 274.166 45.6195C274.166 45.6198 274.168 45.6201 274.169 45.6205C274.172 45.6214 274.177 45.6227 274.183 45.6244C274.195 45.6278 274.213 45.6329 274.236 45.6395C274.283 45.6528 274.351 45.6724 274.44 45.6984C274.617 45.7503 274.875 45.8274 275.201 45.9285C275.853 46.1307 276.776 46.429 277.862 46.8147C280.032 47.585 282.865 48.7077 285.498 50.1123C288.116 51.5093 290.598 53.2174 292.001 55.1819C292.708 56.172 293.158 57.2509 293.19 58.4027C293.222 59.5603 292.83 60.7364 291.95 61.9114L291.15 61.3122C291.918 60.2853 292.215 59.3252 292.19 58.4304C292.165 57.5298 291.813 56.6399 291.187 55.7631C289.923 53.9935 287.613 52.3743 285.027 50.9946C282.455 49.6224 279.673 48.5188 277.527 47.757C276.456 47.3766 275.546 47.0825 274.905 46.8836C274.585 46.7842 274.331 46.7087 274.159 46.6581C274.072 46.6328 274.006 46.6138 273.962 46.6012C273.94 46.5948 273.923 46.5901 273.912 46.587C273.907 46.5855 273.902 46.5843 273.9 46.5836C273.898 46.5832 273.897 46.5829 273.897 46.5828C273.897 46.5827 273.896 46.5826 273.896 46.5826C273.896 46.5826 273.896 46.5826 274.03 46.1008ZM291.95 61.9114C290.801 63.4465 288.847 65.017 287.217 66.186C286.396 66.7753 285.645 67.2715 285.098 67.6204C284.825 67.7949 284.603 67.9328 284.449 68.0274C284.371 68.0747 284.311 68.1111 284.27 68.1359C284.249 68.1483 284.234 68.1577 284.223 68.1642C284.217 68.1674 284.213 68.1699 284.21 68.1716C284.209 68.1724 284.208 68.1731 284.207 68.1735C284.207 68.1738 284.206 68.174 284.206 68.1741C284.206 68.1742 284.206 68.1742 284.206 68.1743C284.206 68.1743 284.206 68.1744 283.951 67.744C283.697 67.3136 283.697 67.3137 283.697 67.3137C283.697 67.3137 283.697 67.3136 283.697 67.3136C283.697 67.3136 283.697 67.3134 283.697 67.3133C283.698 67.313 283.699 67.3125 283.7 67.3118C283.702 67.3104 283.706 67.3082 283.711 67.3053C283.72 67.2995 283.735 67.2907 283.755 67.2789C283.794 67.2555 283.851 67.2205 283.926 67.1747C284.076 67.083 284.293 66.9485 284.56 66.7777C285.095 66.4359 285.831 65.9499 286.634 65.3735C288.255 64.2109 290.1 62.7153 291.15 61.3122L291.95 61.9114ZM283.951 67.744C283.883 67.2486 283.884 67.2486 283.884 67.2486C283.884 67.2485 283.884 67.2485 283.884 67.2485C283.885 67.2484 283.886 67.2483 283.887 67.2481C283.889 67.2478 283.892 67.2474 283.896 67.2469C283.904 67.2458 283.916 67.2442 283.932 67.2422C283.963 67.238 284.009 67.2321 284.068 67.2245C284.187 67.2094 284.361 67.1879 284.582 67.1623C285.024 67.1111 285.654 67.0434 286.408 66.9771C287.915 66.8444 289.925 66.7164 291.927 66.7374C293.918 66.7583 295.945 66.9266 297.462 67.4076C298.22 67.6479 298.896 67.9799 299.374 68.4497C299.869 68.937 300.137 69.5626 300.069 70.3142L299.073 70.2239C299.112 69.796 298.973 69.4582 298.672 69.1624C298.354 68.8492 297.847 68.5785 297.16 68.3609C295.789 67.9262 293.884 67.758 291.916 67.7374C289.96 67.7168 287.985 67.8421 286.496 67.9732C285.752 68.0387 285.132 68.1054 284.697 68.1557C284.48 68.1808 284.31 68.2019 284.194 68.2165C284.136 68.2239 284.092 68.2297 284.063 68.2336C284.048 68.2355 284.037 68.237 284.029 68.238C284.026 68.2385 284.023 68.2388 284.021 68.2391C284.02 68.2392 284.02 68.2393 284.019 68.2393C284.019 68.2394 284.019 68.2394 284.019 68.2394C284.019 68.2394 284.019 68.2394 283.951 67.744ZM300.069 70.3142C299.751 73.825 299.855 75.8652 300.225 77.8837C300.411 78.9014 300.666 79.9195 300.976 81.1317C301.286 82.3411 301.649 83.7362 302.044 85.4897L301.068 85.7095C300.677 83.9727 300.318 82.592 300.008 81.3797C299.698 80.1702 299.434 79.1204 299.241 78.0638C298.851 75.9335 298.749 73.7987 299.073 70.2239L300.069 70.3142ZM302.044 85.4897C302.513 87.5718 302.666 89.2143 302.555 90.4884C302.444 91.7632 302.064 92.7121 301.425 93.3444C300.781 93.9817 299.94 94.2316 299.047 94.2416C298.162 94.2516 297.194 94.0275 296.231 93.6843C294.305 92.9976 292.28 91.7907 290.753 90.7703C289.985 90.2577 289.336 89.7874 288.878 89.4449C288.65 89.2736 288.468 89.134 288.344 89.037C288.282 88.9885 288.234 88.9505 288.201 88.9246C288.184 88.9116 288.172 88.9016 288.163 88.8947C288.159 88.8913 288.156 88.8886 288.153 88.8868C288.152 88.8859 288.151 88.8852 288.151 88.8846C288.15 88.8844 288.15 88.8842 288.15 88.884C288.15 88.8839 288.15 88.8837 288.464 88.4945C288.777 88.1054 288.777 88.1053 288.777 88.1054C288.778 88.1054 288.778 88.1055 288.778 88.1057C288.778 88.106 288.779 88.1065 288.78 88.1072C288.782 88.1086 288.784 88.1109 288.788 88.1139C288.796 88.1199 288.807 88.1291 288.822 88.1412C288.853 88.1655 288.899 88.2017 288.959 88.2484C289.078 88.3417 289.254 88.4772 289.478 88.6443C289.924 88.9785 290.558 89.4381 291.308 89.9388C292.814 90.9448 294.757 92.0973 296.567 92.7423C297.472 93.065 298.315 93.2498 299.036 93.2417C299.75 93.2336 300.313 93.0384 300.722 92.6335C301.136 92.2236 301.461 91.5333 301.559 90.4017C301.658 89.2693 301.525 87.7382 301.068 85.7095L302.044 85.4897ZM288.615 88.971L261.996 97.4387L261.693 96.4858L288.312 88.0181L288.615 88.971ZM237.09 74.5977C236.593 74.5434 236.593 74.5433 236.593 74.543C236.593 74.5427 236.593 74.5423 236.593 74.5419C236.594 74.5409 236.594 74.5396 236.594 74.5378C236.594 74.5342 236.595 74.5289 236.596 74.522C236.597 74.5081 236.599 74.4877 236.603 74.4609C236.609 74.4072 236.618 74.3282 236.63 74.2255C236.654 74.0203 236.691 73.721 236.741 73.3433C236.839 72.5878 236.988 71.5181 237.191 70.2593C237.595 67.744 238.214 64.4628 239.069 61.4216C239.917 58.4054 241.021 55.5355 242.437 53.9165C243.151 53.0991 244.003 52.5345 244.997 52.5141C245.99 52.4938 246.979 53.0207 247.959 54.053L247.234 54.7417C246.353 53.8137 245.616 53.5016 245.017 53.5139C244.418 53.5262 243.809 53.8658 243.189 54.5746C241.937 56.008 240.879 58.6783 240.032 61.6923C239.191 64.6813 238.58 67.9205 238.178 70.418C237.978 71.6656 237.83 72.7254 237.732 73.4728C237.683 73.8465 237.647 74.142 237.623 74.3437C237.611 74.4446 237.602 74.522 237.596 74.574C237.593 74.6 237.591 74.6197 237.589 74.6327C237.589 74.6393 237.588 74.6441 237.588 74.6473C237.588 74.6489 237.588 74.6501 237.587 74.6509C237.587 74.6513 237.587 74.6515 237.587 74.6517C237.587 74.6518 237.587 74.6519 237.09 74.5977ZM247.959 54.053C248.084 54.1849 248.343 54.3157 248.805 54.3968C249.255 54.4757 249.828 54.4958 250.502 54.4695C251.851 54.4167 253.507 54.183 255.203 53.9406C256.883 53.7005 258.602 53.4517 260.027 53.3836C260.74 53.3495 261.402 53.3593 261.962 53.4447C262.51 53.5281 263.032 53.6939 263.394 54.0313L262.713 54.7634C262.571 54.6309 262.29 54.5062 261.811 54.4332C261.345 54.3622 260.758 54.3498 260.075 54.3824C258.707 54.4478 257.041 54.6881 255.344 54.9306C253.663 55.1709 251.952 55.4135 250.541 55.4687C249.836 55.4963 249.182 55.4783 248.632 55.3817C248.094 55.2873 247.579 55.1053 247.234 54.7417L247.959 54.053ZM263.394 54.0313C265.323 55.8259 266.831 56.1223 268 55.7653C269.22 55.3932 270.259 54.2619 271.112 52.7916C271.955 51.3378 272.563 49.6449 272.962 48.3024C273.16 47.6338 273.305 47.0576 273.4 46.6495C273.447 46.4455 273.482 46.2837 273.505 46.1736C273.517 46.1186 273.525 46.0765 273.531 46.0485C273.534 46.0345 273.536 46.024 273.537 46.0173C273.538 46.0139 273.538 46.0114 273.538 46.0099C273.539 46.0091 273.539 46.0086 273.539 46.0083C273.539 46.0082 273.539 46.0081 273.539 46.008C273.539 46.0081 273.539 46.0081 274.03 46.1008C274.521 46.1935 274.521 46.1937 274.521 46.194C274.521 46.1941 274.521 46.1945 274.521 46.1948C274.521 46.1955 274.521 46.1964 274.521 46.1975C274.52 46.1998 274.52 46.203 274.519 46.2072C274.517 46.2155 274.515 46.2275 274.512 46.2431C274.506 46.2742 274.496 46.3196 274.484 46.3781C274.46 46.495 274.423 46.6642 274.374 46.8762C274.275 47.3 274.125 47.8958 273.92 48.5869C273.512 49.964 272.877 51.7419 271.977 53.2933C271.086 54.8282 269.882 56.2366 268.292 56.7218C266.653 57.222 264.787 56.6933 262.713 54.7634L263.394 54.0313ZM231.649 80.0393L236.715 74.2678L237.466 74.9275L232.4 80.699L231.649 80.0393ZM227.951 94.3136L231.54 80.2456L232.509 80.4927L228.92 94.5608L227.951 94.3136ZM261.758 97.4546L247.509 94.9296L247.684 93.9449L261.932 96.4699L261.758 97.4546ZM247.597 94.9372H228.436V93.9372H247.597V94.9372Z" fill="#505E52"/>
<path d="M207.756 1L208.247 0.909445L208.148 0.36846L207.619 0.519119L207.756 1ZM185.123 21.5254L184.719 21.8204L185.123 21.5254ZM194.939 29.6402L194.87 30.1353L195.198 29.2125L194.939 29.6402ZM174.761 32.9815L174.263 33.0256L174.761 32.9815ZM172.197 53.2682L171.708 53.1608H171.708L172.197 53.2682ZM194.939 76.3071L194.916 76.8066L194.996 76.8103L195.074 76.7886L194.939 76.3071ZM223.497 68.3043L223.408 67.8124L223.384 67.8166L223.362 67.8229L223.497 68.3043ZM255.475 38.7095L254.978 38.7624L254.995 38.9169L255.096 39.0348L255.475 38.7095ZM241.903 11.9787L241.536 11.6388L241.903 11.9787ZM221.935 11.9787L221.59 11.6168L221.935 11.9787ZM262.02 46.3469L262.505 46.2261L262.476 46.1113L262.4 46.0215L262.02 46.3469ZM266.656 64.963V65.463H267.295L267.141 64.8422L266.656 64.963ZM241.903 64.963V64.463H241.858L241.814 64.471L241.903 64.963ZM207.756 1C207.619 0.519119 207.618 0.519181 207.618 0.519276C207.618 0.519353 207.617 0.519483 207.617 0.519637C207.616 0.519945 207.614 0.520388 207.612 0.520966C207.608 0.522122 207.602 0.523818 207.594 0.52605C207.579 0.530514 207.556 0.537124 207.526 0.545857C207.466 0.563323 207.378 0.589282 207.264 0.623549C207.036 0.692079 206.703 0.793853 206.282 0.927386C205.442 1.19442 204.252 1.58865 202.851 2.09823C200.051 3.11644 196.398 4.59933 193.006 6.45335C189.627 8.29988 186.447 10.5467 184.656 13.1154C183.755 14.4076 183.19 15.8032 183.15 17.2837C183.11 18.7697 183.6 20.2893 184.719 21.8204L185.526 21.2305C184.516 19.8478 184.117 18.5407 184.15 17.3107C184.183 16.0753 184.655 14.8658 185.476 13.6874C187.131 11.3149 190.141 9.15878 193.485 7.33083C196.816 5.51036 200.418 4.04721 203.192 3.038C204.579 2.53387 205.755 2.14404 206.585 1.88044C207 1.74866 207.328 1.64848 207.551 1.58138C207.663 1.54783 207.749 1.52256 207.807 1.50575C207.835 1.49734 207.857 1.49105 207.871 1.4869C207.879 1.48482 207.884 1.48328 207.888 1.48228C207.889 1.48177 207.891 1.48141 207.891 1.48117C207.892 1.48106 207.892 1.48098 207.892 1.48093C207.892 1.48089 207.892 1.48088 207.756 1ZM184.719 21.8204C186.188 23.8309 188.696 25.8976 190.8 27.4438C191.859 28.2217 192.827 28.8767 193.531 29.3374C193.883 29.5678 194.17 29.7498 194.368 29.8745C194.468 29.9368 194.545 29.9848 194.598 30.0174C194.624 30.0337 194.645 30.0462 194.658 30.0546C194.665 30.0588 194.671 30.062 194.674 30.0642C194.676 30.0653 194.678 30.0662 194.678 30.0668C194.679 30.0671 194.679 30.0673 194.68 30.0675C194.68 30.0676 194.68 30.0676 194.68 30.0677C194.68 30.0677 194.68 30.0678 194.939 29.6402C195.198 29.2125 195.198 29.2125 195.198 29.2125C195.198 29.2125 195.198 29.2125 195.198 29.2124C195.198 29.2124 195.198 29.2122 195.197 29.212C195.197 29.2115 195.196 29.2109 195.194 29.2099C195.191 29.208 195.186 29.2051 195.18 29.2012C195.167 29.1934 195.148 29.1817 195.122 29.166C195.072 29.1348 194.997 29.0882 194.9 29.0274C194.706 28.9058 194.425 28.7272 194.079 28.5006C193.386 28.0473 192.433 27.4027 191.392 26.638C189.298 25.0988 186.898 23.1081 185.526 21.2305L184.719 21.8204ZM194.939 29.6402C195.009 29.145 195.008 29.145 195.008 29.1449C195.008 29.1449 195.008 29.1449 195.007 29.1448C195.007 29.1447 195.006 29.1446 195.004 29.1444C195.002 29.144 194.998 29.1434 194.992 29.1427C194.982 29.1413 194.967 29.1392 194.947 29.1365C194.907 29.1311 194.848 29.1232 194.771 29.1133C194.618 29.0933 194.393 29.065 194.108 29.0312C193.539 28.9636 192.726 28.8741 191.753 28.7864C189.809 28.6111 187.217 28.4421 184.637 28.4698C182.068 28.4974 179.466 28.7201 177.526 29.3502C176.556 29.6651 175.707 30.0956 175.114 30.6934C174.504 31.3084 174.179 32.0881 174.263 33.0256L175.259 32.9374C175.203 32.3142 175.406 31.819 175.824 31.3977C176.259 30.9593 176.939 30.5922 177.835 30.3013C179.626 29.7197 182.103 29.4971 184.648 29.4698C187.182 29.4425 189.738 29.6087 191.664 29.7823C192.626 29.8691 193.429 29.9575 193.991 30.0242C194.272 30.0575 194.492 30.0854 194.642 30.1049C194.717 30.1147 194.774 30.1223 194.813 30.1275C194.832 30.1301 194.846 30.1321 194.856 30.1334C194.861 30.1341 194.864 30.1346 194.867 30.1349C194.868 30.135 194.869 30.1352 194.869 30.1352C194.87 30.1353 194.87 30.1353 194.87 30.1353C194.87 30.1353 194.87 30.1353 194.939 29.6402ZM174.263 33.0256C175.084 42.3035 173.752 43.8719 171.708 53.1608L172.685 53.3757C174.706 44.1901 176.098 42.4123 175.259 32.9374L174.263 33.0256ZM171.708 53.1608C170.488 58.7083 171.32 63.0015 173.302 66.305C175.276 69.596 178.36 71.8519 181.555 73.3975C184.751 74.9437 188.09 75.7943 190.622 76.259C191.89 76.4916 192.959 76.6283 193.713 76.7069C194.091 76.7462 194.389 76.7711 194.594 76.7861C194.697 76.7936 194.776 76.7987 194.83 76.8019C194.857 76.8035 194.878 76.8046 194.892 76.8054C194.9 76.8058 194.905 76.8061 194.909 76.8063C194.911 76.8063 194.912 76.8064 194.913 76.8065C194.914 76.8065 194.915 76.8065 194.915 76.8065C194.915 76.8066 194.916 76.8066 194.939 76.3071C194.962 75.8076 194.962 75.8076 194.962 75.8076C194.962 75.8076 194.962 75.8076 194.961 75.8076C194.961 75.8076 194.96 75.8075 194.959 75.8075C194.956 75.8073 194.951 75.8071 194.945 75.8068C194.933 75.8062 194.914 75.8051 194.89 75.8036C194.84 75.8007 194.765 75.7959 194.667 75.7888C194.472 75.7744 194.183 75.7505 193.817 75.7123C193.084 75.6359 192.041 75.5027 190.802 75.2754C188.322 74.8202 185.078 73.9909 181.99 72.4973C178.902 71.003 176 68.8592 174.159 65.7905C172.326 62.7343 171.512 58.7078 172.685 53.3757L171.708 53.1608ZM195.074 76.7886L223.632 68.7858L223.362 67.8229L194.804 75.8257L195.074 76.7886ZM255.475 38.7095C255.973 38.6566 255.973 38.6564 255.973 38.656C255.973 38.6557 255.972 38.6552 255.972 38.6546C255.972 38.6534 255.972 38.6516 255.972 38.6493C255.971 38.6446 255.971 38.6377 255.97 38.6286C255.968 38.6104 255.965 38.5835 255.961 38.5481C255.953 38.4774 255.941 38.3731 255.925 38.2376C255.894 37.9666 255.846 37.5712 255.783 37.0721C255.656 36.0738 255.463 34.66 255.202 32.9961C254.68 29.6708 253.882 25.336 252.779 21.3206C251.684 17.3302 250.266 13.5657 248.463 11.4532C247.556 10.39 246.49 9.67404 245.259 9.64822C244.028 9.6224 242.787 10.2901 241.536 11.6388L242.27 12.3187C243.425 11.0732 244.411 10.6307 245.238 10.648C246.065 10.6654 246.886 11.146 247.702 12.1024C249.347 14.0292 250.72 17.5958 251.815 21.5853C252.903 25.5496 253.694 29.8431 254.214 33.1512C254.473 34.804 254.665 36.2081 254.791 37.1986C254.854 37.6938 254.901 38.0855 254.932 38.353C254.948 38.4868 254.959 38.5895 254.967 38.6586C254.971 38.6932 254.974 38.7193 254.975 38.7367C254.976 38.7454 254.977 38.7519 254.978 38.7562C254.978 38.7584 254.978 38.76 254.978 38.761C254.978 38.7615 254.978 38.7619 254.978 38.7622C254.978 38.7624 254.978 38.7624 255.475 38.7095ZM241.536 11.6388C241.342 11.8485 240.972 12.0286 240.366 12.1375C239.771 12.2444 239.019 12.2707 238.144 12.2357C236.394 12.1655 234.247 11.8551 232.058 11.5346C229.886 11.2164 227.672 10.8884 225.839 10.7987C224.921 10.7538 224.076 10.7671 223.366 10.8781C222.667 10.9872 222.026 11.201 221.59 11.6168L222.28 12.3407C222.496 12.1345 222.893 11.9639 223.52 11.8661C224.134 11.7702 224.903 11.7541 225.79 11.7975C227.565 11.8843 229.724 12.2034 231.914 12.524C234.087 12.8423 236.291 13.1622 238.104 13.2348C239.011 13.2712 239.845 13.2471 240.542 13.1217C241.228 12.9984 241.856 12.7645 242.27 12.3187L241.536 11.6388ZM221.59 11.6168C219.076 14.0133 217.079 14.4365 215.505 13.9445C213.878 13.4358 212.511 11.8975 211.402 9.93937C210.303 7.9994 209.513 5.7449 208.997 3.96243C208.739 3.0738 208.552 2.30804 208.428 1.76522C208.366 1.4939 208.321 1.27855 208.291 1.13169C208.276 1.05826 208.265 1.00198 208.258 0.964416C208.254 0.945632 208.251 0.931528 208.25 0.922301C208.249 0.917687 208.248 0.914292 208.248 0.912141C208.248 0.911066 208.247 0.910301 208.247 0.909851C208.247 0.909625 208.247 0.909524 208.247 0.909411C208.247 0.909388 208.247 0.909445 207.756 1C207.264 1.09056 207.264 1.09077 207.264 1.09107C207.264 1.09127 207.264 1.09164 207.264 1.09205C207.264 1.09287 207.264 1.094 207.265 1.09544C207.265 1.09833 207.266 1.10246 207.267 1.10783C207.269 1.11855 207.272 1.13419 207.276 1.15452C207.284 1.1952 207.296 1.25472 207.311 1.33149C207.343 1.48503 207.39 1.70769 207.453 1.98686C207.58 2.54499 207.773 3.33002 208.036 4.24072C208.563 6.05693 209.378 8.3953 210.532 10.4321C211.675 12.4508 213.206 14.2733 215.207 14.899C217.262 15.5414 219.623 14.8726 222.28 12.3407L221.59 11.6168ZM262.4 46.0215L255.855 38.3842L255.096 39.0348L261.64 46.6722L262.4 46.0215ZM267.141 64.8422L262.505 46.2261L261.535 46.4677L266.17 65.0838L267.141 64.8422ZM223.586 68.7963L241.992 65.4549L241.814 64.471L223.408 67.8124L223.586 68.7963ZM241.903 65.463H266.656V64.463H241.903V65.463Z" fill="#505E52"/>
<path d="M224.294 55.876V55.7543L224.238 55.6462L213.877 35.6247H220.934L229.043 43.647L229.596 44.194L229.864 43.4638L234.465 30.9263H240.354L237.452 64.0546L237.45 64.0763V64.0982V168.138H224.294V55.876Z" fill="#F1F3CB" stroke="#505E52"/>
<path d="M288.385 95.88V95.7681L288.432 95.6669L294.405 82.9906H290.663L285.962 88.0987L285.388 88.7219L285.12 87.9185L282.46 79.959H279.376L281.066 101.145L281.068 101.165V101.185V168.138H288.385V95.88Z" stroke="#505E52"/>
<path d="M158.852 49.5858L158.598 50.0167L158.852 49.5858ZM137.414 57.0622L137.068 56.7013L136.996 56.7701L136.956 56.8613L137.414 57.0622ZM143.184 101.202L143.428 100.765L143.294 100.69L143.141 100.704L143.184 101.202ZM176.909 120L176.666 120.437L176.779 120.5H176.909V120ZM216.23 120V120.5H217.079L216.667 119.758L216.23 120ZM202.961 96.0697L202.463 96.0187L202.447 96.1749L202.523 96.3122L202.961 96.0697ZM213.31 49.5858L213.227 49.0928L213.057 49.1215L212.94 49.2494L213.31 49.5858ZM182.015 52.5114L182.484 52.6849L182.015 52.5114ZM169.694 33.0074L169.626 33.5027L169.694 33.0074ZM159.105 49.155C156.858 47.8314 154.329 47.6816 151.844 48.1648C149.363 48.6471 146.893 49.7657 144.715 51.026C142.534 52.2883 140.625 53.7056 139.262 54.8055C138.58 55.3559 138.033 55.8281 137.657 56.1634C137.468 56.3311 137.322 56.4646 137.223 56.5567C137.173 56.6027 137.135 56.6384 137.109 56.6628C137.096 56.675 137.086 56.6844 137.079 56.6908C137.076 56.694 137.073 56.6965 137.071 56.6983C137.07 56.6991 137.07 56.6998 137.069 56.7003C137.069 56.7006 137.069 56.7008 137.069 56.7009C137.068 56.7011 137.068 56.7013 137.414 57.0622C137.76 57.4232 137.76 57.4233 137.76 57.4233C137.76 57.4232 137.76 57.4232 137.76 57.423C137.761 57.4228 137.761 57.4223 137.762 57.4217C137.763 57.4204 137.765 57.4184 137.768 57.4157C137.774 57.4102 137.783 57.4018 137.795 57.3906C137.818 57.3682 137.854 57.3345 137.902 57.2906C137.997 57.2027 138.138 57.0736 138.321 56.9105C138.688 56.5844 139.222 56.1227 139.89 55.5837C141.227 54.5045 143.094 53.1201 145.216 51.8915C147.342 50.6609 149.704 49.5995 152.034 49.1464C154.361 48.694 156.623 48.8532 158.598 50.0167L159.105 49.155ZM142.941 101.638L176.666 120.437L177.153 119.563L143.428 100.765L142.941 101.638ZM176.909 120.5H216.23V119.5H176.909V120.5ZM216.667 119.758L203.398 95.8272L202.523 96.3122L215.792 120.242L216.667 119.758ZM202.961 96.0697C203.458 96.1206 203.458 96.1208 203.458 96.1208C203.458 96.1208 203.458 96.1208 203.458 96.1208C203.458 96.1206 203.458 96.1203 203.458 96.1198C203.458 96.1188 203.458 96.1171 203.459 96.1147C203.459 96.1099 203.46 96.1023 203.461 96.092C203.463 96.0714 203.467 96.0401 203.472 95.9991C203.483 95.917 203.499 95.7961 203.522 95.6439C203.57 95.3394 203.645 94.9113 203.759 94.4204C203.989 93.4302 204.368 92.2203 204.958 91.2508C205.551 90.2775 206.3 89.6359 207.255 89.5748C208.231 89.5123 209.607 90.0416 211.482 91.8762L212.181 91.1615C210.236 89.2579 208.594 88.487 207.191 88.5768C205.766 88.6681 204.774 89.6314 204.104 90.7304C203.432 91.8332 203.025 93.1628 202.785 94.1941C202.665 94.7139 202.584 95.1671 202.534 95.4911C202.509 95.6532 202.492 95.7834 202.48 95.8738C202.474 95.9191 202.47 95.9544 202.467 95.9789C202.466 95.9911 202.465 96.0006 202.464 96.0073C202.464 96.0107 202.464 96.0133 202.463 96.0152C202.463 96.0161 202.463 96.0169 202.463 96.0175C202.463 96.0178 202.463 96.0181 202.463 96.0183C202.463 96.0185 202.463 96.0187 202.961 96.0697ZM211.482 91.8762C212.013 92.396 212.586 92.7104 213.196 92.7571C213.811 92.8043 214.377 92.5727 214.876 92.1741C215.845 91.3992 216.676 89.902 217.382 88.0224C218.807 84.2268 219.844 78.5159 220.277 72.6615C220.71 66.8064 220.543 60.7478 219.527 56.2561C219.02 54.0157 218.291 52.1142 217.278 50.8254C216.247 49.5123 214.894 48.812 213.227 49.0928L213.393 50.0789C214.621 49.872 215.633 50.3501 216.492 51.4432C217.37 52.5606 218.057 54.2932 218.552 56.4768C219.537 60.8328 219.709 66.7812 219.28 72.5877C218.85 78.3949 217.824 84.0003 216.446 87.6709C215.75 89.5245 214.995 90.798 214.251 91.3931C213.893 91.6796 213.57 91.7829 213.272 91.7601C212.969 91.7368 212.605 91.5763 212.181 91.1615L211.482 91.8762ZM181.546 52.3378C180.533 55.0747 179.672 56.7754 178.948 57.6938C178.584 58.154 178.292 58.3704 178.076 58.4513C177.893 58.5201 177.742 58.5021 177.573 58.3942C177.377 58.2697 177.151 58.0178 176.911 57.5968C176.675 57.1827 176.445 56.6437 176.223 55.9942C175.779 54.6953 175.383 53.0128 175.011 51.1329C174.639 49.2558 174.294 47.2015 173.95 45.162C173.606 43.1263 173.262 41.1049 172.893 39.308C172.525 37.5163 172.126 35.9207 171.667 34.7452C171.438 34.1588 171.184 33.6499 170.893 33.2685C170.607 32.8926 170.236 32.5775 169.762 32.5121L169.626 33.5027C169.723 33.5161 169.884 33.5938 170.098 33.8745C170.308 34.1498 170.522 34.5613 170.735 35.1089C171.162 36.2012 171.547 37.7274 171.913 39.5093C172.278 41.2859 172.619 43.2897 172.964 45.3286C173.308 47.3636 173.654 49.4333 174.03 51.3272C174.404 53.2183 174.811 54.9539 175.277 56.3178C175.51 56.9997 175.763 57.6033 176.043 58.0927C176.318 58.5751 176.642 58.9876 177.036 59.238C177.456 59.5052 177.935 59.5727 178.428 59.3875C178.889 59.2143 179.319 58.8369 179.733 58.3133C180.561 57.2643 181.465 55.4376 182.484 52.6849L181.546 52.3378ZM169.762 32.5121C169.112 32.4223 168.538 32.8355 168.081 33.3224C167.601 33.833 167.12 34.5629 166.644 35.4066C165.69 37.0981 164.69 39.368 163.714 41.5636C162.729 43.7774 161.771 45.9116 160.884 47.3888C160.438 48.1328 160.035 48.6643 159.688 48.9582C159.517 49.1033 159.387 49.1653 159.3 49.1854C159.228 49.2017 159.172 49.1942 159.105 49.155L158.598 50.0167C158.889 50.1882 159.207 50.2323 159.522 50.1603C159.822 50.0919 160.093 49.9255 160.334 49.7217C160.812 49.3175 161.282 48.6683 161.741 47.9034C162.666 46.3626 163.651 44.1656 164.627 41.9699C165.612 39.7559 166.59 37.538 167.515 35.898C167.979 35.0761 168.413 34.4294 168.81 34.0069C169.229 33.5607 169.492 33.4843 169.626 33.5027L169.762 32.5121ZM212.94 49.2494C211.513 50.8185 210.163 51.5845 208.888 51.834C207.613 52.0836 206.346 51.8298 205.061 51.2348C203.77 50.6372 202.486 49.7072 201.192 48.6401C199.878 47.5558 198.646 46.4115 197.339 45.3036C196.063 44.2221 194.768 43.2245 193.463 42.568C192.153 41.9092 190.79 41.5729 189.398 41.8747C188.005 42.1766 186.671 43.0982 185.379 44.7741C184.09 46.4467 182.818 48.9014 181.546 52.3378L182.484 52.6849C183.738 49.295 184.969 46.9448 186.171 45.3846C187.371 43.8277 188.519 43.0884 189.61 42.852C190.701 42.6154 191.824 42.8632 193.013 43.4614C194.208 44.062 195.427 44.9945 196.692 46.0665C197.926 47.1122 199.263 48.3448 200.556 49.4115C201.87 50.4955 203.233 51.4904 204.641 52.1423C206.055 52.7968 207.539 53.1169 209.08 52.8154C210.62 52.5139 212.15 51.6038 213.68 49.9223L212.94 49.2494ZM136.956 56.8613C134.818 61.733 132.81 66.1196 130.995 70.0626C129.18 74.0038 127.556 77.5062 126.187 80.602C123.462 86.7676 121.71 91.4094 121.519 94.7682C121.422 96.4661 121.719 97.8925 122.539 99.0286C123.358 100.163 124.648 100.938 126.394 101.438C129.857 102.428 135.331 102.39 143.228 101.7L143.141 100.704C135.223 101.396 129.928 101.408 126.669 100.476C125.054 100.014 123.994 99.3355 123.35 98.4434C122.707 97.5528 122.428 96.3795 122.517 94.8251C122.696 91.6794 124.362 87.2058 127.102 81.0063C128.466 77.9195 130.086 74.4269 131.903 70.4808C133.719 66.5364 135.73 62.1433 137.872 57.2632L136.956 56.8613Z" fill="#505E52"/>
<path d="M183.927 105.96L194.761 70.4453L198.164 73.3827L189.56 101.295L189.538 101.366V101.442V167.351H177.123V150.253V129.666V75.9724H180.4L182.95 105.856L183.927 105.96Z" fill="white" stroke="#505E52"/>
<path d="M270.601 84.0651V84.0308L270.605 83.9968L272.666 69.0432H269.424L266.847 101.384L265.851 101.393L262.331 65.5288H257.869L259.005 77.5751L260.193 90.1683L260.195 90.1917V90.2152V167.91H270.601V84.0651Z" fill="#F1F3CB" stroke="#505E52"/>
<path d="M1 54.1611C1 54.1611 6.57918 41.7917 13.8708 43.9394C16.343 44.6675 16.1775 46.8403 18.8854 47.0272C22.8276 47.2993 20.1308 43.885 21.3927 41.4904C23.013 38.4157 27.078 41.3926 30.7533 39.1479C35.0846 36.5026 41.6183 33.3982 41.6183 33.3982C54.2634 47.2743 48.6366 51.0255 48.4715 57.036C48.3065 63.0466 32.9263 54.1611 32.9263 54.1611C32.9263 54.1611 34.2467 59.0173 32.9263 61.9339C31.8493 64.3128 28.0788 67.4707 28.0788 67.4707H1V54.1611Z" fill="#CDD559"/>
<path d="M13.8708 43.9394L13.7295 44.419L13.8708 43.9394ZM1 54.1611L0.544218 53.9556L0.5 54.0536V54.1611H1ZM1 67.4707H0.5V67.9707H1V67.4707ZM28.0788 67.4707V67.9707H28.2606L28.3999 67.854L28.0788 67.4707ZM32.9263 61.9339L33.3818 62.1402L32.9263 61.9339ZM32.9263 54.1611L33.1764 53.7282L32.1253 53.121L32.4438 54.2923L32.9263 54.1611ZM48.4715 57.036L47.9717 57.0223L48.4715 57.036ZM41.6183 33.3982L41.9878 33.0614L41.7383 32.7876L41.4037 32.9466L41.6183 33.3982ZM30.7533 39.1479L30.4927 38.7212L30.7533 39.1479ZM21.3927 41.4904L20.9504 41.2573L21.3927 41.4904ZM18.8854 47.0272L18.851 47.526L18.8854 47.0272ZM14.0121 43.4598C12.0313 42.8763 10.1768 43.2873 8.54133 44.1931C6.91548 45.0936 5.48754 46.4914 4.31378 47.9286C3.13701 49.3695 2.19613 50.8744 1.55048 52.0158C1.22716 52.5874 0.976714 53.0699 0.806641 53.4105C0.721582 53.5808 0.656563 53.7158 0.612525 53.8088C0.590504 53.8553 0.573723 53.8913 0.562301 53.9161C0.55659 53.9284 0.552217 53.938 0.549199 53.9446C0.547689 53.9479 0.546518 53.9505 0.545688 53.9523C0.545272 53.9532 0.544942 53.954 0.544697 53.9545C0.544574 53.9548 0.544455 53.955 0.544393 53.9552C0.544295 53.9554 0.544218 53.9556 1 54.1611C1.45578 54.3667 1.45575 54.3668 1.45573 54.3668C1.45576 54.3668 1.45577 54.3668 1.45581 54.3666C1.45591 54.3664 1.45609 54.366 1.45635 54.3655C1.45688 54.3643 1.45774 54.3624 1.45894 54.3598C1.46134 54.3545 1.46509 54.3463 1.47015 54.3354C1.48029 54.3134 1.49573 54.2803 1.51635 54.2367C1.5576 54.1496 1.61956 54.0209 1.7013 53.8572C1.86482 53.5297 2.10721 53.0627 2.42088 52.5082C3.04918 51.3974 3.95883 49.9442 5.0883 48.5612C6.22079 47.1745 7.55483 45.8826 9.02584 45.0679C10.4873 44.2585 12.0645 43.9286 13.7295 44.419L14.0121 43.4598ZM0.5 54.1611V67.4707H1.5V54.1611H0.5ZM1 67.9707H28.0788V66.9707H1V67.9707ZM28.0788 67.4707C28.3999 67.854 28.3999 67.854 28.4 67.8539C28.4001 67.8539 28.4001 67.8538 28.4002 67.8538C28.4004 67.8536 28.4006 67.8534 28.4009 67.8532C28.4015 67.8527 28.4023 67.852 28.4033 67.8512C28.4054 67.8494 28.4083 67.847 28.4121 67.8437C28.4198 67.8373 28.4309 67.8278 28.4454 67.8156C28.4743 67.791 28.5163 67.755 28.57 67.7086C28.6774 67.6157 28.8314 67.4808 29.0193 67.3118C29.3947 66.974 29.9069 66.4982 30.4538 65.9464C31.5317 64.8589 32.8027 63.4193 33.3818 62.1402L32.4708 61.7277C31.9729 62.8274 30.8202 64.1562 29.7436 65.2424C29.2133 65.7774 28.7156 66.2398 28.3503 66.5685C28.1679 66.7326 28.0189 66.8631 27.9159 66.9522C27.8644 66.9968 27.8244 67.0309 27.7975 67.0538C27.7841 67.0652 27.7739 67.0738 27.7672 67.0795C27.7639 67.0823 27.7614 67.0844 27.7598 67.0857C27.759 67.0864 27.7585 67.0868 27.7581 67.0871C27.758 67.0873 27.7578 67.0874 27.7578 67.0874C27.7578 67.0874 27.7578 67.0874 27.7577 67.0874C27.7578 67.0874 27.7578 67.0874 28.0788 67.4707ZM33.3818 62.1402C34.0997 60.5542 34.0856 58.4975 33.9187 56.9018C33.8341 56.0922 33.7073 55.3773 33.6017 54.8646C33.5488 54.608 33.5011 54.4013 33.4664 54.2579C33.449 54.1861 33.4349 54.1302 33.425 54.0916C33.42 54.0724 33.4161 54.0575 33.4133 54.0471C33.412 54.0419 33.4109 54.0379 33.4101 54.035C33.4097 54.0336 33.4094 54.0325 33.4092 54.0316C33.4091 54.0312 33.409 54.0308 33.4089 54.0306C33.4089 54.0304 33.4088 54.0303 33.4088 54.0302C33.4088 54.0301 33.4088 54.03 32.9263 54.1611C32.4438 54.2923 32.4438 54.2922 32.4438 54.2922C32.4438 54.2922 32.4437 54.2922 32.4438 54.2922C32.4438 54.2922 32.4438 54.2923 32.4438 54.2924C32.4439 54.2928 32.4441 54.2934 32.4443 54.2943C32.4448 54.2961 32.4456 54.2991 32.4467 54.3032C32.4489 54.3114 32.4522 54.3241 32.4566 54.3412C32.4654 54.3752 32.4783 54.4264 32.4945 54.4931C32.5268 54.6267 32.5719 54.8221 32.6222 55.0664C32.723 55.5554 32.8437 56.2368 32.9241 57.0058C33.0874 58.5673 33.0732 60.397 32.4708 61.7277L33.3818 62.1402ZM32.9263 54.1611C32.6762 54.5941 32.6763 54.5942 32.6765 54.5943C32.6766 54.5943 32.6768 54.5945 32.6771 54.5946C32.6777 54.595 32.6784 54.5954 32.6795 54.596C32.6815 54.5972 32.6845 54.5989 32.6883 54.6011C32.6961 54.6055 32.7075 54.6121 32.7224 54.6206C32.7522 54.6376 32.7961 54.6626 32.8533 54.6949C32.9675 54.7594 33.1345 54.8528 33.3467 54.9694C33.7711 55.2026 34.377 55.5285 35.1043 55.9007C36.557 56.644 38.5026 57.5758 40.4593 58.3199C42.3999 59.0579 44.4124 59.6356 45.9771 59.6225C46.7612 59.616 47.5007 59.4611 48.0591 59.036C48.6401 58.5936 48.9475 57.9189 48.9713 57.0497L47.9717 57.0223C47.9543 57.6558 47.745 58.0182 47.4533 58.2404C47.1389 58.4797 46.6498 58.6168 45.9688 58.6225C44.6033 58.6339 42.7398 58.1172 40.8147 57.3852C38.9057 56.6592 36.996 55.7453 35.5598 55.0105C34.8426 54.6435 34.2455 54.3222 33.8282 54.093C33.6196 53.9784 33.456 53.8868 33.3448 53.824C33.2893 53.7927 33.2468 53.7685 33.2184 53.7523C33.2042 53.7442 33.1936 53.7381 33.1865 53.734C33.183 53.732 33.1804 53.7305 33.1787 53.7295C33.1778 53.729 33.1772 53.7287 33.1768 53.7285C33.1767 53.7283 33.1765 53.7283 33.1764 53.7282C33.1764 53.7282 33.1764 53.7282 32.9263 54.1611ZM48.9713 57.0497C49.0108 55.6144 49.3752 54.3146 49.7337 52.8794C50.0887 51.4582 50.4283 49.9329 50.3482 48.1443C50.1872 44.5491 48.3419 40.0341 41.9878 33.0614L41.2487 33.735C47.5397 40.6384 49.2036 44.937 49.3492 48.189C49.4224 49.8241 49.1148 51.2308 48.7635 52.637C48.4157 54.0293 48.0148 55.4524 47.9717 57.0223L48.9713 57.0497ZM41.6183 33.3982C41.4037 32.9466 41.4036 32.9466 41.4036 32.9466C41.4035 32.9467 41.4034 32.9467 41.4033 32.9468C41.4031 32.9469 41.4028 32.947 41.4024 32.9472C41.4015 32.9476 41.4003 32.9482 41.3987 32.949C41.3954 32.9505 41.3906 32.9528 41.3843 32.9558C41.3716 32.9619 41.3528 32.9708 41.3282 32.9826C41.2789 33.0062 41.2062 33.041 41.1122 33.0862C40.9243 33.1767 40.6513 33.3087 40.3102 33.4753C39.6281 33.8086 38.6736 34.2806 37.5832 34.8354C35.4053 35.9438 32.6752 37.3882 30.4927 38.7212L31.0139 39.5746C33.1627 38.2623 35.865 36.8319 38.0368 35.7267C39.1213 35.1748 40.0709 34.7053 40.7492 34.3738C41.0883 34.2081 41.3596 34.077 41.5459 33.9873C41.639 33.9425 41.7109 33.908 41.7595 33.8848C41.7837 33.8732 41.8022 33.8644 41.8145 33.8585C41.8206 33.8556 41.8253 33.8534 41.8283 33.8519C41.8299 33.8512 41.831 33.8507 41.8318 33.8503C41.8321 33.8501 41.8324 33.85 41.8326 33.8499C41.8327 33.8499 41.8327 33.8498 41.8328 33.8498C41.8328 33.8498 41.8328 33.8498 41.6183 33.3982ZM30.4927 38.7212C28.8102 39.7488 27.0434 39.5896 25.326 39.5085C24.4947 39.4692 23.6416 39.4482 22.886 39.6618C22.0944 39.8855 21.4224 40.3617 20.9504 41.2573L21.835 41.7235C22.1732 41.0818 22.6169 40.777 23.158 40.624C23.7353 40.4609 24.4319 40.4673 25.2788 40.5073C26.9178 40.5848 29.0211 40.7917 31.0139 39.5746L30.4927 38.7212ZM20.9504 41.2573C20.5775 41.9649 20.5085 42.7264 20.5231 43.4146C20.5304 43.7595 20.5592 44.0988 20.5862 44.4096C20.6137 44.7269 20.6388 45.0095 20.6443 45.2694C20.6558 45.8108 20.5742 46.0962 20.4104 46.2589C20.2473 46.421 19.8658 46.5937 18.9198 46.5284L18.851 47.526C19.8761 47.5968 20.6358 47.4447 21.1153 46.9683C21.594 46.4926 21.6563 45.8258 21.6441 45.2482C21.6377 44.9487 21.6091 44.6302 21.5824 44.3231C21.5552 44.0095 21.5293 43.7011 21.5228 43.3935C21.5098 42.7765 21.577 42.2132 21.835 41.7235L20.9504 41.2573ZM18.9198 46.5284C18.3149 46.4866 17.8947 46.3369 17.5636 46.1391C17.2248 45.9366 16.9547 45.6699 16.6574 45.3474C16.0675 44.7075 15.402 43.8691 14.0121 43.4598L13.7295 44.419C14.8118 44.7378 15.2997 45.3499 15.9221 46.0252C16.2309 46.3602 16.5817 46.7172 17.0507 46.9975C17.5274 47.2824 18.1019 47.4743 18.851 47.526L18.9198 46.5284Z" fill="#505E52"/>
<path d="M34.9474 61.6118C29.4823 52.8042 49.4714 46.1009 49.4714 46.1009C49.4714 46.1009 51.9337 61.8464 58.5708 54.3974C60.2457 52.5176 69.8243 56.3792 71.3847 54.3974C77.5588 46.556 80.0944 74.5977 80.0944 74.5977L84.2941 80.3692L87.2689 94.4373H71.3847L59.573 96.9623L37.5061 88.4946C37.5061 88.4946 23.5808 102.043 26.6525 85.5997C27.9565 78.6191 28.8307 77.3548 28.2978 70.2691C27.943 65.5515 41.2469 67.7441 41.2469 67.7441C41.2469 67.7441 36.7705 64.5501 34.9474 61.6118Z" fill="#F9FAEB"/>
<path d="M49.4714 46.1009L49.9654 46.0236L49.8739 45.4385L49.3124 45.6268L49.4714 46.1009ZM34.9474 61.6118L34.5225 61.8754L34.9474 61.6118ZM41.2469 67.7441L41.1656 68.2374L41.5373 67.337L41.2469 67.7441ZM28.2978 70.2691L27.7992 70.3066L28.2978 70.2691ZM26.6525 85.5997L27.144 85.6915L26.6525 85.5997ZM37.5061 88.4946L37.6853 88.0278L37.3867 87.9132L37.1575 88.1362L37.5061 88.4946ZM59.573 96.9623L59.3939 97.4291L59.5324 97.4823L59.6775 97.4513L59.573 96.9623ZM80.0944 74.5977L79.5964 74.6427L79.6089 74.7803L79.6901 74.8919L80.0944 74.5977ZM71.3847 54.3974L71.7775 54.7067L71.3847 54.3974ZM58.5708 54.3974L58.9441 54.7301L58.5708 54.3974ZM84.2941 80.3692L84.7833 80.2658L84.7612 80.1614L84.6984 80.075L84.2941 80.3692ZM87.2689 94.4373V94.9373H87.8857L87.7581 94.3338L87.2689 94.4373ZM71.3847 94.4373V93.9373H71.3319L71.2802 93.9483L71.3847 94.4373ZM49.4714 46.1009C49.3124 45.6268 49.3123 45.6269 49.312 45.627C49.3118 45.6271 49.3115 45.6272 49.3111 45.6273C49.3103 45.6275 49.3093 45.6279 49.3079 45.6284C49.3052 45.6293 49.3013 45.6306 49.2962 45.6323C49.286 45.6358 49.2711 45.6409 49.2516 45.6476C49.2127 45.661 49.1556 45.6808 49.0817 45.7069C48.934 45.7591 48.719 45.8364 48.448 45.9378C47.906 46.1406 47.1392 46.4397 46.2367 46.8263C44.4341 47.5983 42.0786 48.724 39.8894 50.1331C37.7101 51.5357 35.6458 53.2505 34.4809 55.2178C33.8946 56.208 33.5284 57.2754 33.5025 58.4051C33.4765 59.5384 33.7937 60.701 34.5225 61.8754L35.3722 61.3482C34.7347 60.3208 34.4811 59.3472 34.5022 58.4281C34.5234 57.5054 34.8223 56.604 35.3414 55.7273C36.3875 53.9605 38.2957 52.3481 40.4306 50.9739C42.5555 49.6062 44.8557 48.5056 46.6304 47.7455C47.5164 47.366 48.2685 47.0727 48.7984 46.8744C49.0633 46.7753 49.2724 46.7001 49.4148 46.6498C49.486 46.6246 49.5405 46.6057 49.5769 46.5932C49.5951 46.5869 49.6087 46.5823 49.6177 46.5792C49.6222 46.5777 49.6255 46.5766 49.6276 46.5759C49.6287 46.5755 49.6295 46.5753 49.6299 46.5751C49.6301 46.575 49.6303 46.575 49.6304 46.5749C49.6304 46.5749 49.6304 46.5749 49.4714 46.1009ZM34.5225 61.8754C35.4761 63.4124 37.1 64.9863 38.4536 66.1579C39.1359 66.7483 39.76 67.2455 40.2138 67.5951C40.4408 67.7701 40.6255 67.9083 40.7539 68.0032C40.8181 68.0507 40.8682 68.0873 40.9026 68.1122C40.9198 68.1246 40.933 68.1342 40.942 68.1407C40.9466 68.144 40.9501 68.1465 40.9525 68.1482C40.9537 68.1491 40.9546 68.1497 40.9553 68.1502C40.9557 68.1505 40.9559 68.1507 40.9561 68.1508C40.9562 68.1509 40.9563 68.1509 40.9564 68.151C40.9565 68.151 40.9565 68.1511 41.2469 67.7441C41.5373 67.337 41.5374 67.3371 41.5374 67.3371C41.5374 67.3371 41.5374 67.3371 41.5373 67.337C41.5373 67.337 41.5371 67.3369 41.5369 67.3367C41.5365 67.3364 41.5358 67.336 41.5349 67.3353C41.533 67.3339 41.53 67.3318 41.526 67.3289C41.518 67.3232 41.5059 67.3144 41.4898 67.3028C41.4577 67.2795 41.4099 67.2446 41.3482 67.1989C41.2246 67.1077 41.0453 66.9735 40.8242 66.803C40.3817 66.462 39.7728 65.977 39.108 65.4017C37.7677 64.2417 36.2417 62.7495 35.3722 61.3482L34.5225 61.8754ZM41.2469 67.7441C41.3282 67.2507 41.3281 67.2507 41.3279 67.2507C41.3278 67.2506 41.3276 67.2506 41.3273 67.2506C41.3268 67.2505 41.3261 67.2504 41.3252 67.2502C41.3233 67.2499 41.3207 67.2495 41.3173 67.2489C41.3104 67.2478 41.3004 67.2462 41.2874 67.2441C41.2613 67.24 41.223 67.234 41.1733 67.2264C41.0739 67.2111 40.929 67.1896 40.7452 67.1639C40.3775 67.1125 39.8537 67.0446 39.2265 66.978C37.9742 66.845 36.3009 66.7164 34.633 66.7375C32.9772 66.7585 31.2751 66.927 29.9928 67.4173C29.349 67.6635 28.7738 68.0046 28.37 68.484C27.9548 68.9768 27.7452 69.588 27.7992 70.3066L28.7964 70.2316C28.7617 69.7708 28.8902 69.4185 29.1348 69.1283C29.3906 68.8246 29.7965 68.563 30.35 68.3513C31.4625 67.9259 33.0198 67.758 34.6457 67.7374C36.2594 67.717 37.8899 67.8417 39.1209 67.9724C39.7355 68.0376 40.2482 68.1041 40.6068 68.1543C40.786 68.1793 40.9266 68.2002 41.0219 68.2148C41.0696 68.2221 41.106 68.2278 41.1302 68.2317C41.1423 68.2336 41.1514 68.2351 41.1573 68.2361C41.1603 68.2365 41.1625 68.2369 41.1639 68.2371C41.1646 68.2372 41.1651 68.2373 41.1653 68.2374C41.1655 68.2374 41.1656 68.2374 41.1656 68.2374C41.1657 68.2374 41.1656 68.2374 41.2469 67.7441ZM27.7992 70.3066C28.3258 77.3084 27.4732 78.4834 26.161 85.5078L27.144 85.6915C28.4398 78.7548 29.3356 77.4011 28.7964 70.2316L27.7992 70.3066ZM26.161 85.5078C25.7728 87.5861 25.6472 89.2192 25.7382 90.4811C25.8289 91.7377 26.1381 92.6764 26.6693 93.3102C27.2163 93.9627 27.9467 94.231 28.73 94.2416C29.4951 94.252 30.3195 94.019 31.1249 93.6727C32.7377 92.9793 34.4252 91.7647 35.692 90.7439C36.3296 90.2302 36.8688 89.7589 37.2488 89.4158C37.439 89.2441 37.5896 89.1043 37.6931 89.007C37.7448 88.9583 37.7848 88.9202 37.8121 88.8941C37.8257 88.8811 37.8361 88.871 37.8433 88.8641C37.8469 88.8606 37.8497 88.858 37.8516 88.8561C37.8525 88.8552 37.8533 88.8545 37.8538 88.8539C37.8541 88.8537 37.8543 88.8534 37.8545 88.8533C37.8547 88.8531 37.8548 88.853 37.5061 88.4946C37.1575 88.1362 37.1575 88.1362 37.1575 88.1362C37.1574 88.1363 37.1573 88.1364 37.1572 88.1365C37.1569 88.1368 37.1564 88.1373 37.1556 88.138C37.1542 88.1394 37.1519 88.1416 37.1488 88.1446C37.1426 88.1506 37.1332 88.1597 37.1205 88.1718C37.0953 88.1959 37.0575 88.232 37.008 88.2785C36.9089 88.3716 36.7634 88.5068 36.5787 88.6735C36.2093 89.0071 35.6845 89.4658 35.0646 89.9653C33.8164 90.971 32.2145 92.1158 30.7299 92.754C29.9867 93.0736 29.3103 93.2494 28.7436 93.2417C28.1949 93.2343 27.7623 93.0575 27.4357 92.6678C27.0934 92.2594 26.8186 91.5589 26.7357 90.4091C26.6531 89.2646 26.7643 87.7241 27.144 85.6915L26.161 85.5078ZM37.327 88.9614L59.3939 97.4291L59.7521 96.4955L37.6853 88.0278L37.327 88.9614ZM80.0944 74.5977C80.5924 74.5527 80.5923 74.5525 80.5923 74.5522C80.5923 74.552 80.5923 74.5516 80.5922 74.5512C80.5921 74.5502 80.592 74.5489 80.5918 74.5471C80.5915 74.5436 80.591 74.5383 80.5904 74.5314C80.5891 74.5177 80.5872 74.4973 80.5847 74.4705C80.5797 74.417 80.5721 74.3381 80.562 74.2356C80.5418 74.0307 80.5114 73.7317 80.4705 73.3543C80.3887 72.5995 80.2651 71.5306 80.0974 70.2726C79.7622 67.7589 79.2498 64.4809 78.5418 61.4435C77.8397 58.4317 76.9269 55.5692 75.7552 53.9522C75.1708 53.1458 74.4398 52.5363 73.5439 52.5142C72.6462 52.492 71.7978 53.0646 70.9919 54.0881L71.7775 54.7067C72.5152 53.7699 73.0966 53.5035 73.5192 53.5139C73.9438 53.5244 74.4238 53.8192 74.9454 54.539C75.9856 55.9744 76.8643 58.6521 77.5679 61.6705C78.2655 64.6634 78.7729 67.9057 79.1061 70.4048C79.2726 71.6532 79.3953 72.7138 79.4763 73.462C79.5168 73.836 79.5469 74.1318 79.5668 74.3338C79.5768 74.4348 79.5842 74.5124 79.5891 74.5645C79.5916 74.5906 79.5934 74.6103 79.5946 74.6234C79.5953 74.63 79.5957 74.6349 79.596 74.6381C79.5961 74.6397 79.5963 74.6409 79.5963 74.6417C79.5964 74.6421 79.5964 74.6423 79.5964 74.6425C79.5964 74.6427 79.5964 74.6427 80.0944 74.5977ZM70.9919 54.0881C70.8997 54.2052 70.711 54.324 70.3513 54.4002C69.9966 54.4752 69.5362 54.4958 68.9833 54.4697C67.877 54.4175 66.5141 54.1858 65.1057 53.9429C63.7159 53.7033 62.2813 53.4526 61.0889 53.3839C60.492 53.3495 59.9293 53.3587 59.4478 53.4472C58.9731 53.5345 58.5131 53.7106 58.1974 54.0648L58.9441 54.7301C59.0472 54.6144 59.2528 54.4999 59.6286 54.4308C59.9976 54.3629 60.4703 54.3499 61.0313 54.3822C62.1547 54.447 63.5263 54.6854 64.9357 54.9284C66.3263 55.1682 67.7554 55.4129 68.9362 55.4686C69.527 55.4965 70.0839 55.4789 70.5583 55.3785C71.0276 55.2791 71.4796 55.0851 71.7775 54.7067L70.9919 54.0881ZM58.1974 54.0648C56.5942 55.8642 55.4001 56.0978 54.5217 55.7744C53.5554 55.4186 52.6983 54.3137 51.9828 52.8258C51.2818 51.3682 50.7764 49.6708 50.4454 48.3253C50.2805 47.6551 50.1601 47.0775 50.0811 46.6681C50.0416 46.4636 50.0125 46.3012 49.9934 46.1906C49.9838 46.1353 49.9767 46.0929 49.9721 46.0647C49.9697 46.0506 49.968 46.04 49.9669 46.0331C49.9664 46.0297 49.966 46.0271 49.9657 46.0256C49.9656 46.0248 49.9655 46.0242 49.9655 46.0239C49.9654 46.0237 49.9654 46.0237 49.9654 46.0236C49.9654 46.0236 49.9654 46.0236 49.4714 46.1009C48.9774 46.1781 48.9774 46.1783 48.9775 46.1786C48.9775 46.1787 48.9776 46.179 48.9776 46.1793C48.9777 46.18 48.9778 46.1808 48.978 46.1819C48.9784 46.1842 48.9789 46.1873 48.9795 46.1914C48.9808 46.1996 48.9828 46.2115 48.9853 46.227C48.9904 46.2579 48.9979 46.303 49.008 46.3612C49.0282 46.4776 49.0584 46.6463 49.0992 46.8577C49.1808 47.2803 49.3047 47.8746 49.4743 48.5642C49.8124 49.9382 50.3373 51.7116 51.0816 53.2592C51.8113 54.7766 52.8142 56.2113 54.1762 56.7128C55.6262 57.2467 57.2288 56.6551 58.9441 54.7301L58.1974 54.0648ZM84.6984 80.075L80.4987 74.3035L79.6901 74.8919L83.8898 80.6634L84.6984 80.075ZM87.7581 94.3338L84.7833 80.2658L83.8049 80.4727L86.7797 94.5407L87.7581 94.3338ZM59.6775 97.4513L71.4892 94.9262L71.2802 93.9483L59.4685 96.4734L59.6775 97.4513ZM71.3847 94.9373H87.2689V93.9373H71.3847V94.9373Z" fill="#505E52"/>
<path d="M104.413 1L103.919 0.924542L104.009 0.332576L104.575 0.527123L104.413 1ZM123.176 21.5254L123.603 21.7845L123.176 21.5254ZM115.038 29.6402L115.121 30.1332L114.743 29.2365L115.038 29.6402ZM131.766 32.9815L132.264 33.0181L131.766 32.9815ZM133.891 53.2682L134.383 53.1785H134.383L133.891 53.2682ZM115.038 76.3071L115.066 76.8063L114.969 76.8117L114.878 76.7808L115.038 76.3071ZM91.3634 68.3043L91.4704 67.8159L91.4973 67.8218L91.5235 67.8307L91.3634 68.3043ZM64.8532 38.7095L65.3513 38.7535L65.3394 38.8885L65.2609 38.9991L64.8532 38.7095ZM76.1047 11.9787L76.5011 11.674L76.1047 11.9787ZM92.6581 11.9787L93.0354 11.6506L92.6581 11.9787ZM59.4279 46.3469L58.9382 46.2458L58.9595 46.1429L59.0203 46.0573L59.4279 46.3469ZM55.585 64.963V65.463H54.9712L55.0953 64.8619L55.585 64.963ZM76.1047 64.963V64.463H76.1588L76.2116 64.4745L76.1047 64.963ZM104.413 1C104.575 0.527123 104.576 0.527195 104.576 0.527302C104.576 0.527382 104.577 0.527523 104.577 0.527684C104.578 0.528006 104.579 0.528464 104.581 0.529057C104.584 0.530242 104.589 0.531967 104.596 0.534229C104.609 0.538753 104.628 0.545424 104.653 0.554219C104.703 0.571809 104.776 0.597898 104.871 0.6323C105.061 0.7011 105.338 0.80317 105.688 0.937027C106.386 1.2047 107.375 1.59972 108.538 2.11024C110.863 3.13018 113.898 4.61613 116.717 6.47465C119.526 8.32697 122.169 10.5803 123.655 13.1512C125.162 15.7572 125.475 18.6936 123.603 21.7845L122.748 21.2664C124.406 18.5298 124.139 15.9867 122.789 13.6516C121.419 11.2813 118.93 9.13169 116.166 7.30952C113.412 5.49356 110.433 4.03347 108.137 3.02598C106.99 2.5228 106.016 2.13376 105.33 1.8708C104.987 1.73934 104.716 1.63946 104.531 1.57263C104.439 1.53922 104.368 1.51407 104.321 1.49738C104.297 1.48904 104.279 1.48281 104.267 1.47872C104.261 1.47667 104.257 1.47516 104.254 1.47419C104.253 1.4737 104.252 1.47335 104.251 1.47313C104.251 1.47302 104.251 1.47296 104.251 1.4729C104.25 1.47287 104.25 1.47288 104.413 1ZM123.603 21.7845C122.385 23.7964 120.302 25.8663 118.555 27.415C117.676 28.1941 116.872 28.8501 116.288 29.3115C115.995 29.5423 115.758 29.7246 115.592 29.8496C115.51 29.9121 115.445 29.9603 115.401 29.993C115.379 30.0094 115.362 30.0219 115.351 30.0304C115.345 30.0347 115.341 30.0379 115.338 30.0402C115.336 30.0413 115.335 30.0422 115.334 30.0428C115.334 30.0431 115.333 30.0433 115.333 30.0435C115.333 30.0436 115.333 30.0437 115.333 30.0437C115.333 30.0438 115.333 30.0438 115.038 29.6402C114.743 29.2365 114.743 29.2365 114.743 29.2365C114.743 29.2365 114.743 29.2365 114.743 29.2364C114.743 29.2363 114.743 29.2362 114.743 29.236C114.744 29.2356 114.745 29.2349 114.746 29.234C114.748 29.2321 114.752 29.2292 114.758 29.2254C114.768 29.2177 114.784 29.206 114.805 29.1904C114.847 29.1594 114.909 29.1129 114.989 29.0523C115.149 28.9309 115.382 28.7527 115.668 28.5265C116.241 28.074 117.03 27.4303 117.892 26.6667C119.625 25.1301 121.611 23.1427 122.748 21.2664L123.603 21.7845ZM115.038 29.6402C114.954 29.1471 114.954 29.1471 114.955 29.1471C114.955 29.147 114.955 29.147 114.955 29.1469C114.956 29.1468 114.957 29.1467 114.958 29.1465C114.96 29.1461 114.964 29.1455 114.968 29.1448C114.977 29.1434 114.99 29.1413 115.006 29.1385C115.04 29.1331 115.089 29.1252 115.153 29.1151C115.281 29.0951 115.467 29.0666 115.704 29.0327C116.178 28.9649 116.853 28.8752 117.662 28.7873C119.277 28.6116 121.433 28.442 123.58 28.4698C125.715 28.4975 127.894 28.7205 129.528 29.3602C130.347 29.6813 131.066 30.1211 131.565 30.728C132.074 31.3476 132.331 32.1126 132.264 33.0181L131.267 32.9449C131.315 32.2897 131.135 31.7798 130.792 31.3632C130.439 30.9338 129.89 30.5761 129.163 30.2913C127.703 29.7193 125.671 29.497 123.567 29.4698C121.475 29.4426 119.363 29.6081 117.77 29.7814C116.974 29.8679 116.31 29.9562 115.846 30.0226C115.614 30.0559 115.432 30.0836 115.308 30.1031C115.246 30.1128 115.199 30.1204 115.167 30.1255C115.152 30.1281 115.14 30.13 115.132 30.1313C115.128 30.132 115.125 30.1325 115.123 30.1328C115.122 30.1329 115.122 30.133 115.121 30.1331C115.121 30.1331 115.121 30.1332 115.121 30.1332C115.121 30.1332 115.121 30.1332 115.038 29.6402ZM132.264 33.0181C131.582 42.3126 132.691 43.8985 134.383 53.1785L133.399 53.358C131.722 44.1635 130.573 42.4031 131.267 32.9449L132.264 33.0181ZM134.383 53.1785C135.391 58.706 134.704 62.9784 133.067 66.2704C131.432 69.5586 128.871 71.8235 126.205 73.3792C123.541 74.9336 120.759 75.7884 118.65 76.2554C117.594 76.4892 116.702 76.6266 116.073 76.7057C115.759 76.7453 115.509 76.7703 115.337 76.7855C115.251 76.7931 115.185 76.7982 115.139 76.8015C115.116 76.8031 115.099 76.8043 115.086 76.8051C115.08 76.8055 115.075 76.8058 115.072 76.806C115.07 76.8061 115.069 76.8062 115.068 76.8062C115.067 76.8062 115.067 76.8063 115.067 76.8063C115.066 76.8063 115.066 76.8063 115.038 76.3071C115.01 75.8079 115.01 75.8079 115.01 75.8079C115.01 75.8079 115.01 75.8079 115.01 75.8079C115.01 75.8079 115.011 75.8078 115.012 75.8078C115.014 75.8076 115.018 75.8074 115.023 75.8071C115.032 75.8065 115.047 75.8055 115.068 75.804C115.108 75.8012 115.169 75.7965 115.249 75.7894C115.41 75.7752 115.647 75.7514 115.948 75.7135C116.552 75.6377 117.412 75.5051 118.434 75.279C120.48 74.826 123.155 74.001 125.701 72.5155C128.244 71.0314 130.644 68.8966 132.172 65.8251C133.697 62.7574 134.375 58.7101 133.399 53.358L134.383 53.1785ZM114.878 76.7808L91.2033 68.778L91.5235 67.8307L115.198 75.8334L114.878 76.7808ZM64.8532 38.7095C64.3552 38.6655 64.3552 38.6653 64.3552 38.665C64.3553 38.6647 64.3553 38.6642 64.3554 38.6636C64.3555 38.6624 64.3556 38.6606 64.3558 38.6583C64.3562 38.6537 64.3569 38.6468 64.3577 38.6377C64.3593 38.6196 64.3617 38.5928 64.365 38.5575C64.3715 38.4869 64.3812 38.3827 64.3943 38.2474C64.4204 37.9767 64.4596 37.5816 64.5123 37.0827C64.6178 36.0851 64.7774 34.6721 64.9939 33.0091C65.4265 29.6852 66.0875 25.3537 67.0005 21.342C67.9075 17.3558 69.081 13.5989 70.5736 11.4891C71.317 10.4382 72.2248 9.67595 73.3186 9.64827C74.4146 9.62053 75.4723 10.3355 76.5011 11.674L75.7082 12.2834C74.7431 11.0278 73.9537 10.6325 73.3439 10.648C72.7319 10.6634 72.0753 11.0978 71.39 12.0666C70.0252 13.9959 68.8843 17.5703 67.9755 21.5639C67.0726 25.5319 66.4163 29.8286 65.9855 33.1382C65.7702 34.7918 65.6116 36.1968 65.5068 37.1879C65.4544 37.6834 65.4155 38.0754 65.3897 38.3433C65.3768 38.4772 65.3672 38.58 65.3608 38.6493C65.3576 38.6839 65.3552 38.7101 65.3536 38.7276C65.3528 38.7363 65.3523 38.7428 65.3519 38.7472C65.3517 38.7493 65.3515 38.751 65.3514 38.752C65.3514 38.7525 65.3514 38.7529 65.3513 38.7532C65.3513 38.7534 65.3513 38.7535 64.8532 38.7095ZM76.5011 11.674C76.6515 11.8697 76.9336 12.0373 77.4119 12.141C77.8862 12.2438 78.4939 12.2706 79.2131 12.2358C80.6523 12.1663 82.4218 11.8579 84.2389 11.5369C86.0368 11.2193 87.8817 10.8893 89.4128 10.7989C90.1791 10.7537 90.8939 10.7664 91.5008 10.8807C92.1018 10.9939 92.6595 11.2185 93.0354 11.6506L92.2809 12.3069C92.1158 12.1171 91.8135 11.9572 91.3158 11.8634C90.824 11.7708 90.2014 11.7541 89.4718 11.7972C88.0113 11.8834 86.2309 12.2005 84.4129 12.5217C82.614 12.8394 80.7769 13.1614 79.2614 13.2347C78.5033 13.2713 77.7967 13.2476 77.2 13.1183C76.6073 12.9898 76.0618 12.7434 75.7082 12.2834L76.5011 11.674ZM93.0354 11.6506C95.1257 14.0537 96.7246 14.4106 97.9355 13.9539C99.2404 13.4618 100.37 11.9494 101.298 9.97328C102.211 8.02931 102.867 5.77028 103.296 3.9848C103.51 3.09461 103.666 2.32744 103.768 1.78345C103.819 1.51154 103.857 1.29563 103.882 1.14825C103.895 1.07456 103.904 1.01803 103.91 0.980221C103.913 0.961316 103.915 0.947092 103.917 0.937746C103.917 0.933073 103.918 0.92962 103.918 0.927411C103.918 0.926307 103.919 0.925513 103.919 0.925034C103.919 0.924794 103.919 0.924672 103.919 0.924551C103.919 0.924507 103.919 0.924542 104.413 1C104.907 1.07546 104.907 1.07565 104.907 1.07592C104.907 1.07612 104.907 1.07647 104.907 1.07687C104.907 1.07765 104.907 1.07876 104.906 1.08017C104.906 1.083 104.905 1.08708 104.905 1.09238C104.903 1.10299 104.9 1.1185 104.897 1.13872C104.891 1.17915 104.881 1.23841 104.868 1.31493C104.842 1.46795 104.803 1.69005 104.751 1.96862C104.646 2.52558 104.486 3.3092 104.268 4.21835C103.833 6.03154 103.158 8.36539 102.203 10.3982C101.264 12.3989 99.9913 14.2473 98.2884 14.8896C96.4915 15.5673 94.4775 14.8323 92.2809 12.3069L93.0354 11.6506ZM59.0203 46.0573L64.4456 38.4199L65.2609 38.9991L59.8355 46.6364L59.0203 46.0573ZM55.0953 64.8619L58.9382 46.2458L59.9176 46.448L56.0747 65.0641L55.0953 64.8619ZM91.2564 68.7927L75.9977 65.4514L76.2116 64.4745L91.4704 67.8159L91.2564 68.7927ZM76.1047 65.463H55.585V64.463H76.1047V65.463Z" fill="#505E52"/>
<path d="M90.6167 55.8759V55.7732L90.6572 55.6788L99.26 35.6246H93.5505L86.8565 43.6126L86.2636 44.3201L85.995 43.4369L82.1888 30.9262H77.4735L79.8796 64.0619L79.8809 64.08V64.0981V168.138H90.6167V55.8759Z" fill="#F1F3CB" stroke="#505E52"/>
<path d="M37.6547 95.8801V95.7859L37.6204 95.6982L32.6569 82.9907H35.6145L39.4851 88.0635L40.0958 88.8638L40.3645 87.8937L42.5624 79.9591H44.9517L43.5505 101.152L43.5494 101.169V101.185V168.138H37.6547V95.8801Z" stroke="#505E52"/>
<path d="M162.777 70.9589C162.777 70.9589 152.051 61.3001 145.078 65.1589C142.714 66.4672 138.716 51.9619 136.127 52.2977C132.357 52.7865 132.663 84.4632 125.955 67.4284C117.614 46.2456 109.883 75.2459 100.118 65.1589C90.5565 63.6458 95.0322 103.49 101.339 97.6896C107.645 91.8896 108.663 101.22 108.663 101.22L97.7077 119.785H130.17L158.013 105.201C184.126 107.346 176.912 101.22 162.777 70.9589Z" fill="#F1F3CB"/>
<path d="M145.078 65.1589L144.836 64.7214L145.078 65.1589ZM162.777 70.9589L163.112 70.5874L163.187 70.6553L163.23 70.7473L162.777 70.9589ZM158.013 105.201L157.781 104.758L157.91 104.691L158.054 104.703L158.013 105.201ZM130.17 119.785L130.402 120.228L130.293 120.285H130.17V119.785ZM97.7077 119.785V120.285H96.8321L97.2771 119.531L97.7077 119.785ZM108.663 101.22L109.16 101.166L109.178 101.331L109.093 101.474L108.663 101.22ZM101.339 97.6896L101.677 98.0577L101.339 97.6896ZM100.118 65.1589L100.196 64.665L100.361 64.6911L100.477 64.8111L100.118 65.1589ZM125.955 67.4284L126.42 67.2452L125.955 67.4284ZM136.127 52.2977L136.063 51.8018V51.8018L136.127 52.2977ZM144.836 64.7214C146.711 63.6839 148.815 63.569 150.875 63.9453C152.933 64.3212 154.979 65.1925 156.781 66.1726C158.586 67.1543 160.167 68.2565 161.294 69.1116C161.859 69.5396 162.311 69.9069 162.623 70.1678C162.779 70.2983 162.9 70.4023 162.983 70.4741C163.024 70.51 163.056 70.5379 163.077 70.557C163.088 70.5665 163.097 70.5739 163.102 70.579C163.105 70.5815 163.107 70.5835 163.109 70.5849C163.11 70.5856 163.11 70.5862 163.111 70.5866C163.111 70.5868 163.111 70.587 163.111 70.5871C163.111 70.5872 163.112 70.5874 162.777 70.9589C162.442 71.3305 162.442 71.3305 162.442 71.3305C162.442 71.3305 162.442 71.3305 162.442 71.3304C162.442 71.3302 162.442 71.3299 162.441 71.3294C162.44 71.3285 162.438 71.3269 162.436 71.3249C162.431 71.3207 162.424 71.3143 162.415 71.3057C162.395 71.2885 162.366 71.2626 162.327 71.2287C162.249 71.1609 162.133 71.0611 161.982 70.935C161.68 70.6828 161.24 70.3256 160.69 69.9084C159.588 69.0731 158.051 68.0017 156.304 67.0511C154.553 66.0988 152.61 65.2789 150.696 64.929C148.783 64.5796 146.932 64.7045 145.321 65.5963L144.836 64.7214ZM158.245 105.644L130.402 120.228L129.938 119.342L157.781 104.758L158.245 105.644ZM130.17 120.285H97.7077V119.285H130.17V120.285ZM97.2771 119.531L108.232 100.966L109.093 101.474L98.1383 120.039L97.2771 119.531ZM108.663 101.22C108.166 101.274 108.166 101.274 108.166 101.274C108.166 101.274 108.166 101.275 108.166 101.275C108.166 101.274 108.166 101.274 108.166 101.274C108.166 101.273 108.165 101.272 108.165 101.27C108.165 101.267 108.164 101.261 108.163 101.254C108.161 101.238 108.158 101.214 108.154 101.183C108.146 101.121 108.132 101.028 108.113 100.912C108.075 100.678 108.013 100.35 107.92 99.9728C107.731 99.211 107.424 98.2878 106.946 97.5519C106.47 96.8168 105.874 96.3392 105.114 96.2935C104.332 96.2464 103.215 96.6438 101.677 98.0577L101 97.3216C102.616 95.8355 103.991 95.2241 105.174 95.2953C106.378 95.3677 107.219 96.1352 107.785 97.0078C108.351 97.8794 108.691 98.9264 108.891 99.7328C108.991 100.14 109.058 100.495 109.1 100.749C109.121 100.876 109.136 100.979 109.145 101.05C109.15 101.086 109.154 101.114 109.156 101.133C109.157 101.143 109.158 101.151 109.159 101.156C109.159 101.159 109.159 101.161 109.159 101.163C109.159 101.164 109.16 101.164 109.16 101.165C109.16 101.165 109.16 101.165 109.16 101.165C109.16 101.166 109.16 101.166 108.663 101.22ZM101.677 98.0577C101.227 98.4719 100.738 98.7247 100.217 98.7622C99.6914 98.8 99.2081 98.6141 98.7832 98.2948C97.9601 97.6763 97.2636 96.4906 96.6786 95.0263C95.4954 92.0649 94.6375 87.6199 94.2794 83.0711C93.9214 78.5218 94.0584 73.8058 94.9021 70.302C95.3229 68.5549 95.9309 67.0587 96.7832 66.0394C97.6555 64.996 98.7977 64.4437 100.196 64.665L100.04 65.6527C99.0483 65.4958 98.2387 65.8575 97.5503 66.6809C96.8418 67.5283 96.2801 68.8513 95.8743 70.5362C95.0651 73.8963 94.9224 78.4951 95.2764 82.9926C95.6304 87.4907 96.4762 91.8245 97.6072 94.6553C98.1793 96.0871 98.7924 97.0508 99.3839 97.4953C99.6662 97.7074 99.9164 97.7812 100.145 97.7648C100.377 97.748 100.663 97.6323 101 97.3216L101.677 98.0577ZM126.42 67.2452C127.255 69.3655 127.96 70.6698 128.546 71.3676C128.839 71.7163 129.068 71.8717 129.228 71.9282C129.361 71.9751 129.466 71.9628 129.588 71.8904C129.732 71.8043 129.907 71.624 130.1 71.3063C130.29 70.9942 130.476 70.5842 130.657 70.0849C131.021 69.086 131.346 67.788 131.654 66.3313C131.96 64.8774 132.244 63.2859 132.528 61.7031C132.812 60.1243 133.097 58.5536 133.402 57.1568C133.706 55.7653 134.038 54.518 134.421 53.595C134.612 53.1346 134.827 52.7282 135.077 52.4204C135.324 52.1155 135.648 51.8556 136.063 51.8018L136.191 52.7935C136.135 52.8009 136.019 52.8457 135.854 53.0502C135.69 53.2519 135.519 53.5595 135.345 53.9787C134.997 54.8151 134.681 55.9897 134.379 57.3704C134.078 58.7459 133.797 60.2979 133.513 61.88C133.229 63.4582 132.942 65.066 132.632 66.5376C132.322 68.0063 131.985 69.36 131.597 70.4269C131.403 70.9604 131.191 71.4368 130.955 71.8256C130.722 72.2088 130.443 72.5439 130.101 72.7487C129.735 72.9672 129.321 73.0213 128.895 72.8711C128.497 72.7305 128.129 72.4252 127.78 72.0107C127.085 71.1822 126.332 69.7501 125.49 67.6116L126.42 67.2452ZM136.063 51.8018C136.629 51.7283 137.125 52.0675 137.512 52.4541C137.917 52.8593 138.319 53.4345 138.714 54.0922C139.506 55.4106 140.334 57.1781 141.139 58.8791C141.953 60.5986 142.741 62.2466 143.468 63.3849C143.834 63.9587 144.159 64.3591 144.432 64.5767C144.703 64.7917 144.799 64.7422 144.836 64.7214L145.321 65.5963C144.767 65.9026 144.221 65.686 143.81 65.3595C143.403 65.0356 143.006 64.52 142.625 63.9232C141.857 62.7202 141.04 61.0081 140.235 59.3068C139.422 57.587 138.617 55.8729 137.857 54.6069C137.476 53.9724 137.123 53.4797 136.805 53.161C136.467 52.8238 136.272 52.7831 136.191 52.7935L136.063 51.8018ZM100.477 64.8111C101.644 66.0163 102.744 66.6013 103.78 66.7919C104.818 66.9827 105.851 66.7891 106.902 66.3316C107.959 65.8719 109.013 65.1553 110.079 64.3292C111.166 63.4865 112.173 62.6066 113.259 61.7416C114.314 60.9014 115.389 60.1225 116.476 59.6091C117.567 59.0935 118.706 58.8283 119.872 59.0659C121.041 59.304 122.159 60.0311 123.237 61.3457C124.312 62.6559 125.368 64.5727 126.42 67.2452L125.49 67.6116C124.457 64.9885 123.447 63.1778 122.464 61.98C121.485 60.7866 120.554 60.2253 119.673 60.0457C118.789 59.8656 117.876 60.0535 116.903 60.5132C115.926 60.975 114.925 61.6934 113.882 62.5239C112.87 63.3295 111.757 64.2937 110.691 65.1196C109.604 65.9623 108.473 66.739 107.301 67.2486C106.125 67.7605 104.886 68.0121 103.599 67.7754C102.311 67.5385 101.034 66.8232 99.759 65.5066L100.477 64.8111ZM163.23 70.7473C164.995 74.5256 166.652 77.9278 168.151 80.9865C169.648 84.0434 170.99 86.7617 172.12 89.1646C173.25 91.5668 174.175 93.6661 174.837 95.4866C175.497 97.3028 175.906 98.8701 175.987 100.202C176.068 101.542 175.819 102.682 175.119 103.593C174.424 104.498 173.339 105.105 171.891 105.494C169.02 106.266 164.491 106.235 157.972 105.7L158.054 104.703C164.592 105.24 168.953 105.248 171.632 104.529C172.959 104.172 173.814 103.651 174.326 102.984C174.835 102.322 175.061 101.446 174.989 100.263C174.917 99.0718 174.544 97.6097 173.897 95.8282C173.251 94.051 172.342 91.9843 171.216 89.5902C170.09 87.1967 168.753 84.4884 167.253 81.4265C165.753 78.3664 164.093 74.9575 162.324 71.1705L163.23 70.7473Z" fill="#505E52"/>
<path d="M129.722 129.666V75.9724H127.139L123.494 99.5763L122.515 99.6231L115.133 70.5609L112.442 73.3634L119.585 101.318L119.601 101.379V101.442V167.351H129.722V150.253V150.182L129.741 150.114L147.253 89.3239H143.027L130.7 129.811L129.722 129.666Z" fill="white" stroke="#505E52"/>
<path d="M52.3968 84.0649V84.0364L52.3936 84.0081L50.6844 69.043H53.2016L55.3375 101.377L56.3348 101.384L59.2521 65.5286H62.781L61.8383 77.5828L60.8534 90.176L60.8519 90.1955V90.215V167.91H52.3968V84.0649Z" fill="#F1F3CB" stroke="#505E52"/>
<mask id="path-20-inside-1_1780_10491" fill="white">
<path fill-rule="evenodd" clip-rule="evenodd" d="M26.9099 58.7185H19.0134V167.751H26.9099V58.7185ZM18.7666 58.4565V168.013H27.1567V58.4565H18.7666Z"/>
</mask>
<path fill-rule="evenodd" clip-rule="evenodd" d="M26.9099 58.7185H19.0134V167.751H26.9099V58.7185ZM18.7666 58.4565V168.013H27.1567V58.4565H18.7666Z" fill="#1C211C"/>
<path d="M19.0134 58.7185V56.7185H17.0134V58.7185H19.0134ZM26.9099 58.7185H28.9099V56.7185H26.9099V58.7185ZM19.0134 167.751H17.0134V169.751H19.0134V167.751ZM26.9099 167.751V169.751H28.9099V167.751H26.9099ZM18.7666 58.4565V56.4565H16.7666V58.4565H18.7666ZM18.7666 168.013H16.7666V170.013H18.7666V168.013ZM27.1567 168.013V170.013H29.1567V168.013H27.1567ZM27.1567 58.4565H29.1567V56.4565H27.1567V58.4565ZM19.0134 60.7185H26.9099V56.7185H19.0134V60.7185ZM21.0134 167.751V58.7185H17.0134V167.751H21.0134ZM26.9099 165.751H19.0134V169.751H26.9099V165.751ZM24.9099 58.7185V167.751H28.9099V58.7185H24.9099ZM18.7666 60.4565H27.1567V56.4565H18.7666V60.4565ZM20.7666 168.013V58.4565H16.7666V168.013H20.7666ZM27.1567 166.013H18.7666V170.013H27.1567V166.013ZM25.1567 58.4565V168.013H29.1567V58.4565H25.1567Z" fill="#505E52" mask="url(#path-20-inside-1_1780_10491)"/>
</svg>
