<?xml version="1.0" standalone="no"?>
<!DOCTYPE svg PUBLIC "-//W3C//DTD SVG 20010904//EN"
 "http://www.w3.org/TR/2001/REC-SVG-20010904/DTD/svg10.dtd">
<svg version="1.0" xmlns="http://www.w3.org/2000/svg"
 width="700.000000pt" height="700.000000pt" viewBox="0 0 700.000000 700.000000"
 preserveAspectRatio="xMidYMid meet">
<metadata>
Created by potrace 1.14, written by Peter Selinger 2001-2017
</metadata>
<g transform="translate(0.000000,700.000000) scale(0.100000,-0.100000)"
fill="#000000" stroke="none">
<path d="M3234 5705 c-524 -124 -990 -282 -1449 -490 -201 -91 -825 -405 -825
-416 0 -9 3 -10 277 -63 253 -50 798 -142 898 -152 34 -4 67 -9 72 -13 14 -9
1156 -2573 1155 -2591 0 -8 -80 -196 -176 -418 -97 -222 -176 -417 -176 -432
0 -16 11 -41 24 -57 l24 -28 146 0 146 0 29 30 c42 44 1295 2846 1295 2897 0
26 -7 45 -22 60 -21 21 -33 23 -150 26 -164 5 -191 -3 -224 -65 -14 -27 -171
-376 -348 -778 -177 -401 -328 -736 -335 -744 -11 -11 -18 -4 -43 45 -37 74
-952 2003 -952 2008 0 2 48 6 106 10 119 8 280 33 441 70 254 59 445 72 568
41 156 -39 312 -147 466 -320 68 -76 73 -80 122 -86 29 -4 237 -10 462 -14
523 -9 984 9 1175 46 73 15 127 37 134 55 7 18 -287 348 -421 473 -156 146
-305 247 -453 308 -133 54 -199 62 -405 49 -153 -9 -167 -5 -268 72 -214 164
-982 514 -1121 511 -17 0 -94 -15 -172 -34z"/>
</g>
</svg>
