<svg width="48" height="48" viewBox="0 0 48 48" fill="none" xmlns="http://www.w3.org/2000/svg">
<path fill-rule="evenodd" clip-rule="evenodd" d="M0 0H48V48H20.2664L30.436 24.0927C30.5572 23.7714 30.6178 23.549 30.6178 23.4255C30.6178 23.2278 30.5451 23.0548 30.3997 22.9066C30.2542 22.7583 30.0724 22.6842 29.8542 22.6842H28.1452C27.8785 22.6842 27.6725 22.746 27.527 22.8695C27.4058 22.9931 27.3088 23.1413 27.2361 23.3143C24.6705 29.0687 24.1362 30.4255 23.4022 32.2894L23.4022 32.2895C22.5737 34.3932 21.4908 37.143 16.9455 47.5915C16.8728 47.7398 16.8243 47.8633 16.8 47.9622C16.7985 47.9686 16.7969 47.9751 16.7954 47.9815C16.794 47.9877 16.7927 47.9938 16.7914 48H0V0ZM20.2251 7.21574L43.1701 19.0563C43.6359 19.2967 43.4649 20.0007 42.9408 20.0007H35.3896H26.0931C25.7045 20.0007 25.3512 20.2257 25.1869 20.5778L21.4113 28.6675C21.1129 29.307 20.2639 29.4445 19.7788 28.9319L5.98754 14.3574C5.50882 13.8514 5.68098 13.0234 6.32166 12.7502L19.3742 7.18453C19.6483 7.06765 19.9603 7.0791 20.2251 7.21574Z" fill="#E5E9A2"/>
</svg>
