<svg width="1380" height="418" viewBox="0 0 1380 418" fill="none" xmlns="http://www.w3.org/2000/svg">
<path d="M86.3 350.25C68.7684 350.25 53.5826 346.913 40.7425 340.238C28.1494 333.315 18.3959 323.55 11.482 310.942C4.5681 298.086 0.864235 282.758 0.370386 264.958C0.123462 261.25 0 256.306 0 250.125C0 243.944 0.123462 239 0.370386 235.292C0.864235 217.492 4.5681 202.288 11.482 189.679C18.3959 176.824 28.1494 167.058 40.7425 160.383C53.5826 153.461 68.7684 150 86.3 150C100.622 150 112.844 151.978 122.968 155.933C133.339 159.889 141.858 164.957 148.525 171.138C155.192 177.318 160.13 183.993 163.34 191.163C166.797 198.332 168.649 205.131 168.896 211.558C169.143 214.031 168.402 216.008 166.674 217.492C164.945 218.975 162.847 219.717 160.377 219.717H142.599C140.13 219.717 138.278 219.222 137.043 218.233C135.808 216.997 134.574 215.019 133.339 212.3C128.894 200.186 122.845 191.657 115.19 186.712C107.536 181.768 98.0289 179.296 86.6704 179.296C71.855 179.296 59.7557 183.869 50.3726 193.017C41.2364 202.164 36.2979 216.874 35.5571 237.146C35.3102 246.046 35.3102 254.699 35.5571 263.104C36.2979 283.624 41.2364 298.457 50.3726 307.604C59.7557 316.504 71.855 320.954 86.6704 320.954C98.0289 320.954 107.536 318.482 115.19 313.538C122.845 308.593 128.894 300.064 133.339 287.95C134.574 285.231 135.808 283.376 137.043 282.388C138.278 281.151 140.13 280.533 142.599 280.533H160.377C162.847 280.533 164.945 281.275 166.674 282.758C168.402 284.242 169.143 286.219 168.896 288.692C168.649 293.883 167.538 299.199 165.563 304.638C163.587 310.076 160.377 315.639 155.933 321.325C151.735 326.764 146.426 331.708 140.006 336.158C133.586 340.361 125.808 343.822 116.672 346.542C107.782 349.014 97.6586 350.25 86.3 350.25Z" fill="#505E52"/>
<path d="M266.589 350.25C254.242 350.25 243.007 347.778 232.883 342.833C222.759 337.889 214.611 331.214 208.438 322.808C202.265 314.403 199.178 304.885 199.178 294.254C199.178 277.196 206.092 263.599 219.92 253.463C233.748 243.326 251.773 236.651 273.996 233.438L329.184 225.65V214.896C329.184 203.029 325.727 193.758 318.813 187.083C312.146 180.408 301.158 177.071 285.849 177.071C274.737 177.071 265.724 179.296 258.81 183.746C252.143 188.196 247.452 193.882 244.736 200.804C243.254 204.513 240.661 206.367 236.958 206.367H220.29C217.574 206.367 215.475 205.625 213.994 204.142C212.759 202.411 212.142 200.433 212.142 198.208C212.142 194.5 213.5 189.926 216.216 184.488C219.179 179.049 223.624 173.733 229.55 168.542C235.476 163.35 243.007 159.024 252.143 155.562C261.527 151.854 272.885 150 286.219 150C301.034 150 313.504 151.978 323.628 155.933C333.752 159.642 341.654 164.71 347.333 171.138C353.259 177.565 357.457 184.858 359.926 193.017C362.642 201.175 364 209.457 364 217.863V338.013C364 340.485 363.136 342.586 361.407 344.317C359.926 345.8 357.951 346.542 355.481 346.542H338.444C335.727 346.542 333.628 345.8 332.147 344.317C330.665 342.586 329.925 340.485 329.925 338.013V322.067C326.715 326.517 322.393 330.967 316.961 335.417C311.529 339.619 304.738 343.204 296.59 346.171C288.441 348.89 278.441 350.25 266.589 350.25ZM274.367 322.438C284.491 322.438 293.75 320.336 302.146 316.133C310.541 311.683 317.085 304.885 321.776 295.738C326.715 286.59 329.184 275.094 329.184 261.25V250.867L286.219 257.171C268.687 259.643 255.477 263.846 246.588 269.779C237.698 275.465 233.254 282.758 233.254 291.658C233.254 298.581 235.229 304.39 239.18 309.088C243.378 313.538 248.563 316.875 254.736 319.1C261.156 321.325 267.7 322.438 274.367 322.438Z" fill="#505E52"/>
<path d="M425.765 346.542C423.296 346.542 421.197 345.8 419.468 344.317C417.987 342.586 417.246 340.485 417.246 338.013V162.238C417.246 159.765 417.987 157.787 419.468 156.304C421.197 154.574 423.296 153.708 425.765 153.708H443.173C445.642 153.708 447.618 154.574 449.099 156.304C450.828 157.787 451.692 159.765 451.692 162.238V178.554C458.112 170.149 466.137 163.35 475.767 158.158C485.644 152.719 498.237 150 513.547 150C529.597 150 543.177 153.585 554.289 160.754C565.648 167.676 574.166 177.442 579.846 190.05C585.525 202.411 588.365 216.874 588.365 233.438V338.013C588.365 340.485 587.624 342.586 586.142 344.317C584.661 345.8 582.685 346.542 580.216 346.542H561.697C559.228 346.542 557.129 345.8 555.4 344.317C553.919 342.586 553.178 340.485 553.178 338.013V235.292C553.178 217.986 548.98 204.513 540.585 194.871C532.189 184.982 519.843 180.037 503.546 180.037C488.237 180.037 475.891 184.982 466.507 194.871C457.371 204.513 452.803 217.986 452.803 235.292V338.013C452.803 340.485 451.939 342.586 450.21 344.317C448.729 345.8 446.754 346.542 444.284 346.542H425.765Z" fill="#505E52"/>
<path d="M720.758 350.25C701.991 350.25 686.312 346.665 673.718 339.496C661.125 332.326 651.495 322.438 644.828 309.829C638.161 296.974 634.457 282.388 633.717 266.071C633.47 261.868 633.346 256.553 633.346 250.125C633.346 243.45 633.47 238.135 633.717 234.179C634.457 217.615 638.161 203.029 644.828 190.421C651.742 177.812 661.496 167.924 674.089 160.754C686.682 153.585 702.238 150 720.758 150C739.277 150 754.833 153.585 767.426 160.754C780.019 167.924 789.649 177.812 796.316 190.421C803.23 203.029 807.057 217.615 807.798 234.179C808.045 238.135 808.169 243.45 808.169 250.125C808.169 256.553 808.045 261.868 807.798 266.071C807.057 282.388 803.354 296.974 796.687 309.829C790.02 322.438 780.39 332.326 767.797 339.496C755.203 346.665 739.524 350.25 720.758 350.25ZM720.758 321.696C736.067 321.696 748.29 316.875 757.426 307.233C766.562 297.344 771.5 283.006 772.241 264.217C772.488 260.508 772.612 255.811 772.612 250.125C772.612 244.439 772.488 239.742 772.241 236.033C771.5 217.244 766.562 203.029 757.426 193.388C748.29 183.499 736.067 178.554 720.758 178.554C705.448 178.554 693.102 183.499 683.719 193.388C674.583 203.029 669.768 217.244 669.274 236.033C669.027 239.742 668.903 244.439 668.903 250.125C668.903 255.811 669.027 260.508 669.274 264.217C669.768 283.006 674.583 297.344 683.719 307.233C693.102 316.875 705.448 321.696 720.758 321.696Z" fill="#505E52"/>
<path d="M863.437 417C860.968 417 858.869 416.135 857.141 414.404C855.659 412.921 854.918 410.943 854.918 408.471V162.238C854.918 159.765 855.659 157.787 857.141 156.304C858.869 154.574 860.968 153.708 863.437 153.708H880.475C882.944 153.708 884.92 154.574 886.401 156.304C888.13 157.787 888.994 159.765 888.994 162.238V178.554C894.92 170.396 902.822 163.597 912.699 158.158C922.576 152.719 934.922 150 949.737 150C963.565 150 975.294 152.349 984.924 157.046C994.801 161.743 1002.83 168.171 1009 176.329C1015.42 184.488 1020.23 193.758 1023.44 204.142C1026.65 214.525 1028.38 225.65 1028.63 237.517C1028.88 241.472 1029 245.675 1029 250.125C1029 254.575 1028.88 258.778 1028.63 262.733C1028.38 274.353 1026.65 285.478 1023.44 296.108C1020.23 306.492 1015.42 315.763 1009 323.921C1002.83 331.832 994.801 338.26 984.924 343.204C975.294 347.901 963.565 350.25 949.737 350.25C935.416 350.25 923.316 347.654 913.439 342.463C903.809 337.024 895.908 330.349 889.735 322.438V408.471C889.735 410.943 888.994 412.921 887.512 414.404C886.031 416.135 883.932 417 881.216 417H863.437ZM941.959 320.213C954.799 320.213 964.8 317.493 971.96 312.054C979.368 306.368 984.677 299.075 987.887 290.175C991.097 281.028 992.949 271.263 993.443 260.879C993.69 253.71 993.69 246.54 993.443 239.371C992.949 228.988 991.097 219.346 987.887 210.446C984.677 201.299 979.368 194.006 971.96 188.567C964.8 182.881 954.799 180.037 941.959 180.037C929.86 180.037 919.983 182.881 912.328 188.567C904.921 194.253 899.365 201.546 895.661 210.446C892.204 219.099 890.229 227.999 889.735 237.146C889.488 241.101 889.364 245.799 889.364 251.238C889.364 256.676 889.488 261.497 889.735 265.7C889.982 274.353 891.957 282.882 895.661 291.288C899.612 299.693 905.414 306.615 913.069 312.054C920.724 317.493 930.354 320.213 941.959 320.213Z" fill="#505E52"/>
<path d="M1114.35 418C1112.27 418 1110.46 417.245 1108.9 415.736C1107.34 414.227 1106.56 412.466 1106.56 410.453C1106.56 409.447 1106.69 408.441 1106.95 407.435C1107.21 406.429 1107.73 405.171 1108.51 403.662L1138.23 335.246C1138.41 334.844 1138.41 334.387 1138.23 333.987L1030.61 92.5462C1030.27 91.7824 1030.59 90.8881 1031.33 90.492C1041.46 85.0407 1051.39 75.5682 1056.59 80.2712C1056.72 80.3912 1056.82 80.5433 1056.9 80.7048L1156.53 290.786C1157.1 291.994 1158.83 291.971 1159.37 290.749L1218.77 156.528C1219.55 154.767 1220.58 153.258 1221.88 152C1223.44 150.742 1225.65 150.113 1228.51 150.113H1246.82C1249.16 150.113 1251.1 150.868 1252.66 152.377C1254.22 153.886 1255 155.647 1255 157.66C1255 158.917 1254.35 161.181 1253.05 164.451L1142.4 411.585C1141.62 413.346 1140.46 414.856 1138.9 416.113C1137.6 417.371 1135.52 418 1132.66 418H1114.35Z" fill="#505E52"/>
<path d="M1244.48 48.0432C1233.78 37.4091 1171.55 7.26916 1142.71 0.0844209C1142.47 0.0265228 1142.24 0.0280815 1142 0.0799076C1047.14 21.0983 1001.94 42.919 923.956 83.1684C923.305 83.5046 923.4 84.4759 924.117 84.6268C937.828 87.5102 1015.12 103.434 1067.12 107.173C1115.27 110.635 1150.99 79.9577 1190.74 107.173C1202.03 114.905 1215.59 131.024 1217.41 133.207C1217.54 133.369 1217.68 133.459 1217.89 133.476C1237.87 135.082 1394.9 138.715 1378.85 122.777C1362.73 106.763 1332.85 64.5856 1292.86 53.3813C1270.63 47.1563 1255.23 58.7194 1244.48 48.0432Z" fill="#505E52"/>
</svg>
