<svg width="129" height="40" viewBox="0 0 129 40" fill="none" xmlns="http://www.w3.org/2000/svg">
<path d="M8.04887 33.654C6.41377 33.654 4.99744 33.3431 3.7999 32.7213C2.62538 32.0765 1.71571 31.1668 1.07088 29.9923C0.426049 28.7948 0.0806038 27.3669 0.0345445 25.7088C0.0115148 25.3634 0 24.9028 0 24.327C0 23.7513 0.0115148 23.2907 0.0345445 22.9452C0.0806038 21.2871 0.426049 19.8708 1.07088 18.6963C1.71571 17.4987 2.62538 16.589 3.7999 15.9672C4.99744 15.3224 6.41377 15 8.04887 15C9.38459 15 10.5246 15.1842 11.4688 15.5527C12.436 15.9212 13.2306 16.3933 13.8524 16.969C14.4742 17.5448 14.9347 18.1666 15.2341 18.8344C15.5565 19.5023 15.7293 20.1356 15.7523 20.7344C15.7753 20.9647 15.7062 21.1489 15.545 21.2871C15.3838 21.4253 15.1881 21.4944 14.9578 21.4944H13.2996C13.0693 21.4944 12.8966 21.4483 12.7815 21.3562C12.6663 21.241 12.5512 21.0568 12.436 20.8035C12.0215 19.675 11.4573 18.8805 10.7433 18.4199C10.0294 17.9593 9.14278 17.729 8.08342 17.729C6.70164 17.729 5.57318 18.1551 4.69805 19.0072C3.84596 19.8593 3.38536 21.2295 3.31627 23.118C3.29324 23.947 3.29324 24.7531 3.31627 25.5361C3.38536 27.4475 3.84596 28.8293 4.69805 29.6814C5.57318 30.5105 6.70164 30.925 8.08342 30.925C9.14278 30.925 10.0294 30.6947 10.7433 30.2341C11.4573 29.7735 12.0215 28.979 12.436 27.8506C12.5512 27.5972 12.6663 27.4245 12.7815 27.3324C12.8966 27.2172 13.0693 27.1597 13.2996 27.1597H14.9578C15.1881 27.1597 15.3838 27.2288 15.545 27.3669C15.7062 27.5051 15.7753 27.6894 15.7523 27.9197C15.7293 28.4033 15.6256 28.8984 15.4414 29.4051C15.2572 29.9117 14.9578 30.4299 14.5432 30.9596C14.1517 31.4662 13.6566 31.9268 13.0578 32.3413C12.4591 32.7329 11.7336 33.0553 10.8815 33.3086C10.0525 33.5389 9.10824 33.654 8.04887 33.654Z" fill="#314A44"/>
<path d="M24.8637 33.654C23.7122 33.654 22.6644 33.4237 21.7201 32.9632C20.7759 32.5026 20.0159 31.8808 19.4402 31.0977C18.8645 30.3147 18.5766 29.4281 18.5766 28.4378C18.5766 26.8488 19.2214 25.5821 20.5111 24.6379C21.8007 23.6937 23.4819 23.0719 25.5546 22.7725L30.7017 22.0471V21.0453C30.7017 19.9399 30.3793 19.0763 29.7345 18.4545C29.1127 17.8327 28.0878 17.5217 26.66 17.5217C25.6237 17.5217 24.7831 17.729 24.1383 18.1436C23.5165 18.5581 23.0789 19.0878 22.8256 19.7326C22.6874 20.078 22.4456 20.2508 22.1001 20.2508H20.5456C20.2923 20.2508 20.0965 20.1817 19.9584 20.0435C19.8432 19.8823 19.7856 19.6981 19.7856 19.4908C19.7856 19.1453 19.9123 18.7193 20.1656 18.2126C20.442 17.706 20.8565 17.2108 21.4092 16.7272C21.9619 16.2436 22.6644 15.8406 23.5165 15.5182C24.3916 15.1727 25.4509 15 26.6945 15C28.0763 15 29.2393 15.1842 30.1835 15.5527C31.1278 15.8982 31.8647 16.3703 32.3944 16.969C32.9471 17.5678 33.3386 18.2472 33.5689 19.0072C33.8222 19.7671 33.9489 20.5386 33.9489 21.3216V32.5141C33.9489 32.7444 33.8683 32.9401 33.7071 33.1013C33.5689 33.2395 33.3847 33.3086 33.1544 33.3086H31.5653C31.312 33.3086 31.1162 33.2395 30.9781 33.1013C30.8399 32.9401 30.7708 32.7444 30.7708 32.5141V31.0287C30.4714 31.4432 30.0684 31.8577 29.5617 32.2723C29.0551 32.6638 28.4218 32.9977 27.6618 33.2741C26.9018 33.5274 25.9691 33.654 24.8637 33.654ZM25.5891 31.0632C26.5333 31.0632 27.397 30.8674 28.18 30.4759C28.963 30.0614 29.5733 29.4281 30.0108 28.576C30.4714 27.7239 30.7017 26.653 30.7017 25.3634V24.3961L26.6945 24.9834C25.0594 25.2137 23.8274 25.6052 22.9983 26.1579C22.1692 26.6876 21.7547 27.3669 21.7547 28.196C21.7547 28.8408 21.9389 29.382 22.3074 29.8196C22.6989 30.2341 23.1825 30.545 23.7583 30.7523C24.357 30.9596 24.9673 31.0632 25.5891 31.0632Z" fill="#314A44"/>
<path d="M39.7095 33.3086C39.4792 33.3086 39.2834 33.2395 39.1222 33.1013C38.984 32.9401 38.9149 32.7444 38.9149 32.5141V16.14C38.9149 15.9097 38.984 15.7254 39.1222 15.5873C39.2834 15.426 39.4792 15.3454 39.7095 15.3454H41.3331C41.5634 15.3454 41.7476 15.426 41.8858 15.5873C42.047 15.7254 42.1276 15.9097 42.1276 16.14V17.6599C42.7263 16.8769 43.4748 16.2436 44.373 15.76C45.2942 15.2533 46.4687 15 47.8965 15C49.3934 15 50.6601 15.3339 51.6964 16.0018C52.7558 16.6466 53.5503 17.5563 54.08 18.7308C54.6097 19.8823 54.8745 21.2295 54.8745 22.7725V32.5141C54.8745 32.7444 54.8054 32.9401 54.6672 33.1013C54.5291 33.2395 54.3448 33.3086 54.1145 33.3086H52.3873C52.157 33.3086 51.9613 33.2395 51.8 33.1013C51.6619 32.9401 51.5928 32.7444 51.5928 32.5141V22.9452C51.5928 21.3332 51.2013 20.078 50.4183 19.1799C49.6353 18.2587 48.4838 17.7981 46.9638 17.7981C45.536 17.7981 44.3845 18.2587 43.5094 19.1799C42.6573 20.078 42.2312 21.3332 42.2312 22.9452V32.5141C42.2312 32.7444 42.1506 32.9401 41.9894 33.1013C41.8512 33.2395 41.667 33.3086 41.4367 33.3086H39.7095Z" fill="#314A44"/>
<path d="M67.2223 33.654C65.472 33.654 64.0096 33.3201 62.8351 32.6523C61.6606 31.9844 60.7625 31.0632 60.1407 29.8887C59.5189 28.6911 59.1734 27.3324 59.1043 25.8124C59.0813 25.4209 59.0698 24.9258 59.0698 24.327C59.0698 23.7052 59.0813 23.2101 59.1043 22.8416C59.1734 21.2986 59.5189 19.9399 60.1407 18.7654C60.7855 17.5908 61.6952 16.6697 62.8697 16.0018C64.0442 15.3339 65.4951 15 67.2223 15C68.9495 15 70.4004 15.3339 71.5749 16.0018C72.7494 16.6697 73.6476 17.5908 74.2694 18.7654C74.9142 19.9399 75.2711 21.2986 75.3402 22.8416C75.3633 23.2101 75.3748 23.7052 75.3748 24.327C75.3748 24.9258 75.3633 25.4209 75.3402 25.8124C75.2711 27.3324 74.9257 28.6911 74.3039 29.8887C73.6821 31.0632 72.784 31.9844 71.6094 32.6523C70.4349 33.3201 68.9725 33.654 67.2223 33.654ZM67.2223 30.9941C68.6501 30.9941 69.7901 30.545 70.6422 29.6469C71.4943 28.7257 71.9549 27.39 72.024 25.6397C72.047 25.2943 72.0585 24.8567 72.0585 24.327C72.0585 23.7973 72.047 23.3598 72.024 23.0143C71.9549 21.2641 71.4943 19.9399 70.6422 19.0417C69.7901 18.1205 68.6501 17.6599 67.2223 17.6599C65.7944 17.6599 64.643 18.1205 63.7678 19.0417C62.9157 19.9399 62.4667 21.2641 62.4206 23.0143C62.3976 23.3598 62.386 23.7973 62.386 24.327C62.386 24.8567 62.3976 25.2943 62.4206 25.6397C62.4667 27.39 62.9157 28.7257 63.7678 29.6469C64.643 30.545 65.7944 30.9941 67.2223 30.9941Z" fill="#314A44"/>
<path d="M80.5295 39.8721C80.2992 39.8721 80.1034 39.7915 79.9422 39.6302C79.804 39.4921 79.7349 39.3078 79.7349 39.0775V16.14C79.7349 15.9097 79.804 15.7254 79.9422 15.5873C80.1034 15.426 80.2992 15.3454 80.5295 15.3454H82.1185C82.3488 15.3454 82.5331 15.426 82.6712 15.5873C82.8324 15.7254 82.913 15.9097 82.913 16.14V17.6599C83.4658 16.8999 84.2027 16.2666 85.1239 15.76C86.0451 15.2533 87.1966 15 88.5783 15C89.868 15 90.9619 15.2188 91.8601 15.6563C92.7813 16.0939 93.5297 16.6927 94.1055 17.4527C94.7042 18.2126 95.1533 19.0763 95.4527 20.0435C95.7521 21.0107 95.9133 22.0471 95.9363 23.1525C95.9594 23.521 95.9709 23.9125 95.9709 24.327C95.9709 24.7416 95.9594 25.1331 95.9363 25.5015C95.9133 26.5839 95.7521 27.6203 95.4527 28.6105C95.1533 29.5778 94.7042 30.4414 94.1055 31.2014C93.5297 31.9383 92.7813 32.5371 91.8601 32.9977C90.9619 33.4353 89.868 33.654 88.5783 33.654C87.2426 33.654 86.1142 33.4122 85.193 32.9286C84.2948 32.422 83.5579 31.8002 82.9821 31.0632V39.0775C82.9821 39.3078 82.913 39.4921 82.7749 39.6302C82.6367 39.7915 82.4409 39.8721 82.1876 39.8721H80.5295ZM87.8529 30.8559C89.0505 30.8559 89.9832 30.6026 90.651 30.096C91.3419 29.5663 91.8371 28.8869 92.1364 28.0578C92.4358 27.2057 92.6085 26.2961 92.6546 25.3288C92.6776 24.661 92.6776 23.9931 92.6546 23.3252C92.6085 22.358 92.4358 21.4598 92.1364 20.6308C91.8371 19.7787 91.3419 19.0993 90.651 18.5926C89.9832 18.0629 89.0505 17.7981 87.8529 17.7981C86.7245 17.7981 85.8033 18.0629 85.0893 18.5926C84.3985 19.1223 83.8803 19.8017 83.5349 20.6308C83.2124 21.4368 83.0282 22.2659 82.9821 23.118C82.9591 23.4864 82.9476 23.924 82.9476 24.4307C82.9476 24.9373 82.9591 25.3864 82.9821 25.7779C83.0052 26.5839 83.1894 27.3785 83.5349 28.1615C83.9033 28.9445 84.4445 29.5893 85.1584 30.096C85.8724 30.6026 86.7705 30.8559 87.8529 30.8559Z" fill="#314A44"/>
<path d="M102.867 40C102.682 40 102.521 39.9296 102.383 39.7887C102.245 39.6479 102.176 39.4836 102.176 39.2958C102.176 39.2019 102.187 39.108 102.21 39.0141C102.233 38.9202 102.279 38.8028 102.349 38.662C110.492 19.9416 106.936 27.2356 112.125 15.5986C112.194 15.4343 112.286 15.2934 112.401 15.1761C112.539 15.0587 112.735 15 112.988 15H114.612C114.819 15 114.992 15.0704 115.13 15.2113C115.268 15.3521 115.337 15.5164 115.337 15.7042C115.337 15.8216 115.28 16.0329 115.165 16.338L105.354 39.4014C105.285 39.5657 105.181 39.7066 105.043 39.8239C104.928 39.9413 104.744 40 104.49 40H102.867Z" fill="#314A44"/>
<path d="M127.184 11.4917L105.487 0.218392C105.221 0.0801588 104.907 0.0685877 104.631 0.186866L92.312 5.47593C91.6743 5.74972 91.5025 6.57395 91.9778 7.07966L104.986 20.9215C105.471 21.4376 106.325 21.2998 106.622 20.6572L110.165 13.0149C110.329 12.6615 110.683 12.4354 111.072 12.4354H119.87H126.953C127.477 12.4354 127.648 11.7331 127.184 11.4917Z" fill="#314A44"/>
</svg>
