<svg width="634" height="634" viewBox="0 0 634 634" fill="none" xmlns="http://www.w3.org/2000/svg">
<circle cx="317" cy="317" r="317" fill="#E5E9A2"/>
<path d="M280.378 539.503C278.26 539.503 276.407 538.734 274.818 537.195C273.229 535.657 272.435 533.862 272.435 531.811C272.435 530.785 272.567 529.76 272.832 528.734C273.097 527.709 273.626 526.427 274.421 524.889L304.728 455.143C304.902 454.741 304.9 454.284 304.722 453.884L195 207.755C194.66 206.992 194.981 206.097 195.718 205.702C206.058 200.146 216.199 190.468 221.497 195.274C221.629 195.394 221.735 195.546 221.812 195.708L323.399 409.899C323.972 411.107 325.698 411.084 326.239 409.861L386.816 272.995C387.61 271.201 388.669 269.662 389.993 268.38C391.582 267.099 393.832 266.458 396.745 266.458H415.411C417.794 266.458 419.78 267.227 421.369 268.765C422.957 270.303 423.751 272.098 423.751 274.149C423.751 275.431 423.09 277.738 421.766 281.071L308.973 532.965C308.179 534.759 306.988 536.298 305.399 537.58C304.075 538.862 301.957 539.503 299.044 539.503H280.378Z" fill="#505E52"/>
<path d="M412.818 162.7C401.939 151.821 338.715 120.986 309.405 113.638C309.171 113.579 308.933 113.581 308.698 113.633C212.292 135.14 166.374 157.467 87.1047 198.658C86.4555 198.995 86.5433 199.962 87.259 200.113C101.033 203.031 179.702 219.36 232.608 223.19C281.53 226.732 317.826 195.349 358.209 223.19C369.687 231.104 383.478 247.608 385.309 249.826C385.444 249.989 385.581 250.081 385.792 250.098C406.084 251.741 565.646 255.458 549.34 239.153C532.958 222.77 502.604 179.623 461.966 168.161C439.388 161.793 423.74 173.622 412.818 162.7Z" fill="#505E52"/>
</svg>
