<svg width="380" height="366" viewBox="0 0 380 366" fill="none" xmlns="http://www.w3.org/2000/svg">
<path d="M28.8739 94.9928L28.662 95.7122L28.8739 94.9928ZM1 117.13L0.316327 116.821L0.25 116.968V117.13H1ZM1 145.954H0.25V146.704H1V145.954ZM59.6438 145.954V146.704H59.9163L60.1253 146.529L59.6438 145.954ZM70.1417 133.963L70.825 134.272L70.1417 133.963ZM70.1417 117.13L70.5169 116.48L68.9402 115.569L69.418 117.326L70.1417 117.13ZM88.9656 72.1641L89.52 71.6589L89.1457 71.2482L88.6438 71.4866L88.9656 72.1641ZM65.4357 84.6161L65.8267 85.2562L65.4357 84.6161ZM45.1638 89.6891L45.8273 90.0388L45.1638 89.6891ZM39.7338 101.68L39.6822 102.428L39.7338 101.68ZM29.0858 94.2733C24.9011 93.0408 20.9772 93.9038 17.4933 95.8334C14.0238 97.755 10.9626 100.747 8.43433 103.843C5.90158 106.944 3.87435 110.186 2.48185 112.647C1.78487 113.88 1.24516 114.919 0.879022 115.653C0.695918 116.019 0.556124 116.31 0.46168 116.509C0.414456 116.609 0.378562 116.686 0.354253 116.739C0.342099 116.765 0.33284 116.785 0.326508 116.799C0.323343 116.806 0.320908 116.811 0.31921 116.815C0.318361 116.817 0.317696 116.818 0.317215 116.819C0.316975 116.82 0.316753 116.82 0.316633 116.821C0.316457 116.821 0.316327 116.821 1 117.13C1.68367 117.438 1.68364 117.438 1.68364 117.438C1.68371 117.438 1.68376 117.438 1.68389 117.438C1.68415 117.437 1.68458 117.436 1.68521 117.435C1.68645 117.432 1.68843 117.428 1.69113 117.422C1.69653 117.41 1.70484 117.392 1.71603 117.367C1.73841 117.319 1.77229 117.246 1.81742 117.151C1.90768 116.96 2.04289 116.68 2.22101 116.323C2.57733 115.609 3.10494 114.593 3.78745 113.386C5.15392 110.97 7.13431 107.806 9.59612 104.791C12.0625 101.772 14.9828 98.9386 18.22 97.1456C21.4429 95.3605 24.951 94.6192 28.662 95.7122L29.0858 94.2733ZM0.25 117.13V145.954H1.75V117.13H0.25ZM1 146.704H59.6438V145.204H1V146.704ZM59.6438 145.954C60.1253 146.529 60.1254 146.529 60.1255 146.529C60.1256 146.529 60.1258 146.528 60.126 146.528C60.1263 146.528 60.1268 146.528 60.1273 146.527C60.1285 146.526 60.1302 146.525 60.1323 146.523C60.1366 146.519 60.1428 146.514 60.1509 146.507C60.1672 146.494 60.191 146.473 60.2219 146.447C60.2838 146.394 60.3743 146.317 60.4898 146.217C60.721 146.017 61.0527 145.727 61.4578 145.362C62.2674 144.634 63.3718 143.608 64.5508 142.418C66.8846 140.064 69.5979 136.983 70.825 134.272L69.4585 133.654C68.3533 136.095 65.8175 139.01 63.4855 141.362C62.3315 142.527 61.2487 143.532 60.4544 144.247C60.0575 144.604 59.7331 144.888 59.5085 145.083C59.3963 145.18 59.309 145.254 59.2501 145.304C59.2207 145.329 59.1984 145.348 59.1836 145.361C59.1762 145.367 59.1707 145.372 59.1671 145.375C59.1653 145.376 59.164 145.377 59.1632 145.378C59.1628 145.378 59.1625 145.379 59.1623 145.379C59.1622 145.379 59.1622 145.379 59.1622 145.379C59.1622 145.379 59.1622 145.379 59.6438 145.954ZM70.825 134.272C72.3414 130.923 72.3201 126.544 71.96 123.1C71.7781 121.36 71.5055 119.823 71.2784 118.72C71.1648 118.169 71.0623 117.725 70.9879 117.417C70.9507 117.264 70.9205 117.144 70.8994 117.062C70.8888 117.021 70.8806 116.99 70.8748 116.968C70.8719 116.957 70.8697 116.949 70.8681 116.943C70.8673 116.94 70.8667 116.938 70.8663 116.936C70.866 116.935 70.8659 116.934 70.8657 116.934C70.8657 116.934 70.8656 116.933 70.8655 116.933C70.8655 116.933 70.8654 116.933 70.1417 117.13C69.418 117.326 69.418 117.326 69.4179 117.326C69.4179 117.326 69.4179 117.326 69.418 117.326C69.418 117.327 69.4181 117.327 69.4182 117.327C69.4184 117.328 69.4188 117.33 69.4194 117.332C69.4206 117.336 69.4224 117.343 69.4248 117.352C69.4297 117.371 69.4372 117.399 69.4468 117.437C69.4662 117.512 69.4947 117.624 69.5301 117.77C69.6009 118.063 69.6995 118.49 69.8092 119.023C70.029 120.09 70.2926 121.577 70.4681 123.256C70.8229 126.649 70.8016 130.687 69.4585 133.654L70.825 134.272ZM70.1417 117.13C69.7665 117.779 69.7668 117.779 69.7671 117.779C69.7674 117.78 69.7679 117.78 69.7684 117.78C69.7696 117.781 69.7712 117.782 69.7734 117.783C69.7776 117.786 69.7839 117.789 69.7922 117.794C69.8087 117.803 69.8332 117.817 69.8652 117.836C69.9293 117.872 70.024 117.926 70.1472 117.996C70.3935 118.135 70.7541 118.337 71.2125 118.588C72.1293 119.092 73.4384 119.796 75.0101 120.601C78.1507 122.208 82.3524 124.22 86.574 125.825C90.7716 127.421 95.0804 128.652 98.4027 128.624C100.067 128.61 101.585 128.281 102.713 127.422C103.875 126.537 104.508 125.18 104.557 123.376L103.058 123.335C103.018 124.786 102.532 125.674 101.804 126.229C101.042 126.809 99.8993 127.112 98.3902 127.124C95.3666 127.15 91.2813 126.01 87.1072 124.423C82.957 122.845 78.8092 120.86 75.6934 119.265C74.1368 118.469 72.8409 117.772 71.9348 117.274C71.4817 117.025 71.1263 116.826 70.8845 116.69C70.7637 116.621 70.6713 116.569 70.6093 116.533C70.5783 116.516 70.555 116.502 70.5395 116.493C70.5317 116.489 70.526 116.486 70.5222 116.483C70.5203 116.482 70.5189 116.481 70.518 116.481C70.5176 116.481 70.5173 116.481 70.5171 116.48C70.5169 116.48 70.5169 116.48 70.1417 117.13ZM104.557 123.376C104.644 120.223 105.445 117.367 106.218 114.273C106.986 111.2 107.711 107.936 107.539 104.114C107.196 96.4424 103.26 86.7363 89.52 71.6589L88.4113 72.6692C102.057 87.6428 105.72 97.0241 106.041 104.181C106.202 107.773 105.525 110.859 104.763 113.91C104.006 116.939 103.15 119.98 103.058 123.335L104.557 123.376ZM88.9656 72.1641C88.6438 71.4866 88.6437 71.4867 88.6436 71.4867C88.6434 71.4868 88.6433 71.4869 88.643 71.487C88.6426 71.4872 88.6419 71.4875 88.641 71.488C88.6392 71.4888 88.6366 71.4901 88.6331 71.4917C88.6261 71.495 88.6158 71.5 88.6021 71.5065C88.5748 71.5195 88.5342 71.5389 88.481 71.5643C88.3745 71.6152 88.2173 71.6905 88.0141 71.7883C87.6076 71.9839 87.0169 72.2696 86.2789 72.6302C84.803 73.3514 82.7374 74.3726 80.3781 75.5733C75.6635 77.9725 69.7603 81.096 65.0448 83.976L65.8267 85.2562C70.4914 82.4071 76.3531 79.3046 81.0584 76.9101C83.409 75.7139 85.4672 74.6963 86.9374 73.9779C87.6725 73.6187 88.2606 73.3344 88.6646 73.1399C88.8666 73.0427 89.0226 72.968 89.1279 72.9176C89.1806 72.8924 89.2206 72.8733 89.2474 72.8606C89.2608 72.8542 89.2709 72.8494 89.2776 72.8462C89.281 72.8446 89.2835 72.8434 89.2851 72.8426C89.2859 72.8422 89.2866 72.8419 89.287 72.8417C89.2872 72.8417 89.2873 72.8416 89.2874 72.8415C89.2875 72.8415 89.2875 72.8415 88.9656 72.1641ZM65.0448 83.976C61.2978 86.2645 57.3595 85.9039 53.6663 85.7293C51.8609 85.644 50.0653 85.6034 48.4884 86.0491C46.8573 86.5102 45.4779 87.4843 44.5003 89.3395L45.8273 90.0388C46.6042 88.5645 47.6412 87.8474 48.8964 87.4926C50.2058 87.1224 51.7666 87.1412 53.5955 87.2276C57.1712 87.3966 61.6143 87.8289 65.8267 85.2562L65.0448 83.976ZM44.5003 89.3395C43.731 90.7994 43.5823 92.3825 43.6132 93.8492C43.6287 94.5838 43.6902 95.3082 43.7487 95.9823C43.8081 96.6661 43.8636 97.29 43.8758 97.8661C43.9009 99.0505 43.7307 99.7956 43.2711 100.252C42.8126 100.708 41.8606 101.075 39.7855 100.932L39.6822 102.428C41.8759 102.58 43.3954 102.243 44.3284 101.316C45.2603 100.39 45.4017 99.073 45.3754 97.8344C45.362 97.1989 45.3011 96.521 45.2431 95.8526C45.1842 95.1744 45.1272 94.4962 45.1129 93.8175C45.0842 92.4577 45.2303 91.1718 45.8273 90.0388L44.5003 89.3395ZM39.7855 100.932C38.4275 100.838 37.4661 100.5 36.7006 100.042C35.9235 99.5779 35.3116 98.9703 34.664 98.2676C33.3757 96.87 31.9936 95.1298 29.0858 94.2733L28.662 95.7122C31.1082 96.4327 32.2239 97.8337 33.561 99.2843C34.226 100.006 34.9588 100.749 35.9311 101.33C36.9151 101.918 38.108 102.32 39.6822 102.428L39.7855 100.932Z" fill="#505E52"/>
<path d="M105.972 99.6738L106.713 99.5579L106.576 98.6803L105.733 98.9627L105.972 99.6738ZM74.5175 133.265L73.8802 133.661L74.5175 133.265ZM88.1603 146.546L88.0383 147.286L88.5959 145.935L88.1603 146.546ZM60.1168 152.014L59.3689 152.07L60.1168 152.014ZM56.5536 185.215L55.8164 185.077L56.5536 185.215ZM80.059 191.485L80.3277 190.784L79.8798 190.612L79.536 190.947L80.059 191.485ZM127.848 209.823L127.58 210.523L127.788 210.603L128.005 210.556L127.848 209.823ZM172.291 161.388L171.544 161.456L171.563 161.662L171.685 161.83L172.291 161.388ZM153.429 117.641L152.839 117.177L153.429 117.641ZM125.678 117.641L126.238 118.14L125.678 117.641ZM181.386 173.888L182.12 173.732L182.087 173.576L181.993 173.446L181.386 173.888ZM187.829 204.354V205.104H188.754L188.562 204.199L187.829 204.354ZM153.429 204.354V203.604H153.349L153.272 203.621L153.429 204.354ZM105.972 99.6738C105.733 98.9627 105.733 98.9629 105.733 98.963C105.732 98.9632 105.731 98.9634 105.731 98.9636C105.729 98.9642 105.727 98.9649 105.724 98.9659C105.718 98.9678 105.71 98.9706 105.699 98.9743C105.678 98.9816 105.646 98.9925 105.604 99.0068C105.521 99.0355 105.398 99.0781 105.239 99.1343C104.921 99.2468 104.457 99.4136 103.872 99.6324C102.702 100.07 101.047 100.716 99.0974 101.551C95.203 103.219 90.1202 105.648 85.4004 108.686C80.6957 111.714 76.2769 115.394 73.7938 119.588C72.5464 121.694 71.7758 123.951 71.7212 126.328C71.6665 128.711 72.3323 131.166 73.8802 133.661L75.1548 132.87C73.7438 130.596 73.1735 128.425 73.2208 126.363C73.2682 124.296 73.9379 122.288 75.0845 120.352C77.3895 116.459 81.5741 112.933 86.2123 109.947C90.8356 106.972 95.8354 104.58 99.688 102.93C101.612 102.105 103.246 101.468 104.398 101.037C104.973 100.822 105.428 100.658 105.738 100.549C105.893 100.494 106.012 100.453 106.092 100.425C106.132 100.412 106.162 100.401 106.182 100.395C106.192 100.391 106.199 100.389 106.204 100.387C106.206 100.386 106.208 100.386 106.209 100.385C106.209 100.385 106.21 100.385 106.21 100.385C106.21 100.385 106.21 100.385 105.972 99.6738ZM73.8802 133.661C75.9175 136.944 79.4016 140.326 82.3287 142.859C83.8005 144.133 85.1471 145.205 86.1261 145.96C86.6157 146.337 87.0139 146.635 87.2903 146.839C87.4286 146.941 87.5364 147.02 87.61 147.074C87.6468 147.1 87.6751 147.121 87.6944 147.135C87.704 147.141 87.7114 147.147 87.7165 147.15C87.719 147.152 87.721 147.154 87.7223 147.155C87.723 147.155 87.7236 147.155 87.7239 147.156C87.7241 147.156 87.7243 147.156 87.7244 147.156C87.7246 147.156 87.7247 147.156 88.1603 146.546C88.5959 145.935 88.5959 145.935 88.5959 145.935C88.5959 145.935 88.5959 145.935 88.5958 145.935C88.5956 145.935 88.5952 145.935 88.5947 145.934C88.5937 145.934 88.5922 145.933 88.59 145.931C88.5858 145.928 88.5792 145.923 88.5703 145.917C88.5527 145.904 88.526 145.885 88.4909 145.859C88.4206 145.808 88.3163 145.732 88.1817 145.633C87.9126 145.434 87.5225 145.142 87.0416 144.771C86.0795 144.03 84.7558 142.976 83.3103 141.725C80.4031 139.209 77.0659 135.95 75.1548 132.87L73.8802 133.661ZM88.1603 146.546C88.2823 145.806 88.282 145.806 88.2817 145.806C88.2814 145.806 88.281 145.806 88.2804 145.805C88.2794 145.805 88.2779 145.805 88.276 145.805C88.2722 145.804 88.2666 145.803 88.2594 145.802C88.2448 145.8 88.2235 145.796 88.1956 145.792C88.1397 145.783 88.0574 145.77 87.9504 145.754C87.7366 145.721 87.4242 145.674 87.0276 145.619C86.2344 145.508 85.1037 145.361 83.7496 145.218C81.0446 144.93 77.435 144.653 73.8409 144.699C70.265 144.744 66.627 145.109 63.9066 146.149C62.5423 146.671 61.3529 147.383 60.5276 148.363C59.6853 149.362 59.2583 150.6 59.3689 152.07L60.8647 151.958C60.7832 150.874 61.0884 150.025 61.6748 149.329C62.2781 148.613 63.2135 148.02 64.4423 147.55C66.908 146.607 70.3289 146.243 73.8599 146.199C77.3727 146.154 80.9181 146.425 83.5913 146.709C84.9263 146.851 86.0405 146.996 86.82 147.104C87.2097 147.159 87.5156 147.204 87.7234 147.236C87.8273 147.252 87.9067 147.265 87.9598 147.273C87.9863 147.277 88.0063 147.281 88.0195 147.283C88.026 147.284 88.0309 147.285 88.0341 147.285C88.0357 147.285 88.0368 147.286 88.0375 147.286C88.0379 147.286 88.0381 147.286 88.0383 147.286C88.0384 147.286 88.0383 147.286 88.1603 146.546ZM59.3689 152.07C60.5134 167.29 58.6528 169.894 55.8164 185.077L57.2909 185.353C60.1027 170.301 62.0281 167.429 60.8647 151.958L59.3689 152.07ZM55.8164 185.077C54.9784 189.563 54.7113 193.069 54.9056 195.763C55.0994 198.449 55.7575 200.402 56.8451 201.7C57.9562 203.025 59.4391 203.576 61.0573 203.598C62.6483 203.62 64.3843 203.134 66.1079 202.393C69.5581 200.909 73.184 198.302 75.9214 196.097C77.2963 194.989 78.4591 193.972 79.2787 193.232C79.6887 192.862 80.0132 192.561 80.2358 192.352C80.3471 192.247 80.4329 192.165 80.4913 192.109C80.5205 192.081 80.5428 192.06 80.558 192.045C80.5656 192.038 80.5715 192.032 80.5755 192.028C80.5775 192.026 80.579 192.025 80.5801 192.024C80.5807 192.023 80.5811 192.023 80.5814 192.023C80.5818 192.022 80.582 192.022 80.059 191.485C79.536 190.947 79.536 190.947 79.5359 190.947C79.5357 190.947 79.5355 190.947 79.5351 190.948C79.5344 190.949 79.5332 190.95 79.5316 190.951C79.5283 190.954 79.5232 190.959 79.5163 190.966C79.5026 190.979 79.4817 190.999 79.4541 191.026C79.3987 191.079 79.3161 191.157 79.2081 191.259C78.9922 191.462 78.6753 191.756 78.2736 192.119C77.4699 192.845 76.3287 193.842 74.9802 194.929C72.2709 197.112 68.7732 199.614 65.5154 201.015C63.8851 201.716 62.3711 202.116 61.0777 202.098C59.8114 202.081 58.7753 201.667 57.9947 200.736C57.1904 199.777 56.5839 198.18 56.4017 195.655C56.2201 193.137 56.4657 189.77 57.2909 185.353L55.8164 185.077ZM79.7903 192.185L127.58 210.523L128.117 209.123L80.3277 190.784L79.7903 192.185ZM172.291 161.388C173.038 161.321 173.038 161.321 173.038 161.32C173.038 161.32 173.038 161.319 173.038 161.318C173.037 161.316 173.037 161.313 173.037 161.309C173.036 161.302 173.035 161.29 173.034 161.276C173.031 161.246 173.027 161.202 173.021 161.144C173.011 161.029 172.994 160.858 172.972 160.637C172.929 160.194 172.863 159.548 172.775 158.731C172.598 157.099 172.33 154.787 171.967 152.066C171.242 146.627 170.134 139.54 168.604 132.976C167.083 126.452 165.118 120.314 162.624 116.873C161.38 115.155 159.88 113.94 158.097 113.896C156.311 113.852 154.562 114.99 152.839 117.177L154.018 118.105C155.638 116.048 156.986 115.369 158.06 115.395C159.136 115.422 160.259 116.165 161.41 117.753C163.706 120.922 165.62 126.782 167.144 133.317C168.658 139.813 169.758 146.847 170.481 152.264C170.842 154.971 171.108 157.271 171.283 158.893C171.371 159.704 171.436 160.346 171.48 160.784C171.501 161.003 171.517 161.172 171.528 161.285C171.533 161.342 171.537 161.385 171.54 161.414C171.541 161.428 171.542 161.439 171.543 161.446C171.543 161.449 171.544 161.452 171.544 161.454C171.544 161.454 171.544 161.455 171.544 161.456C171.544 161.456 171.544 161.456 172.291 161.388ZM152.839 117.177C152.571 117.518 152.075 117.8 151.26 117.973C150.452 118.144 149.422 118.187 148.212 118.13C145.792 118.016 142.818 117.51 139.774 116.985C136.758 116.465 133.672 115.926 131.112 115.779C129.832 115.705 128.643 115.726 127.638 115.911C126.642 116.094 125.731 116.455 125.118 117.142L126.238 118.14C126.532 117.81 127.062 117.542 127.909 117.386C128.745 117.232 129.799 117.206 131.026 117.276C133.482 117.418 136.473 117.938 139.519 118.463C142.536 118.984 145.609 119.509 148.142 119.629C149.409 119.688 150.583 119.649 151.57 119.44C152.55 119.233 153.441 118.838 154.018 118.105L152.839 117.177ZM125.118 117.142C121.609 121.081 118.887 121.706 116.794 120.936C114.57 120.117 112.665 117.614 111.111 114.382C109.578 111.195 108.477 107.494 107.758 104.571C107.399 103.113 107.137 101.856 106.965 100.965C106.879 100.52 106.816 100.166 106.774 99.9249C106.753 99.8041 106.738 99.7115 106.728 99.6495C106.722 99.6185 106.719 99.5951 106.716 99.5798C106.715 99.5721 106.714 99.5664 106.714 99.5627C106.713 99.5609 106.713 99.5596 106.713 99.5588C106.713 99.5584 106.713 99.5582 106.713 99.558C106.713 99.5579 106.713 99.5579 105.972 99.6738C105.231 99.7897 105.231 99.79 105.231 99.7904C105.231 99.7908 105.231 99.7913 105.231 99.792C105.231 99.7932 105.232 99.795 105.232 99.7973C105.233 99.8019 105.234 99.8086 105.235 99.8172C105.238 99.8345 105.242 99.8598 105.247 99.8928C105.258 99.9589 105.275 100.056 105.296 100.181C105.34 100.431 105.405 100.794 105.493 101.25C105.668 102.161 105.935 103.442 106.301 104.929C107.031 107.895 108.161 111.71 109.759 115.032C111.334 118.308 113.458 121.306 116.276 122.343C119.226 123.43 122.561 122.268 126.238 118.14L125.118 117.142ZM181.993 173.446L172.897 160.947L171.685 161.83L180.78 174.329L181.993 173.446ZM188.562 204.199L182.12 173.732L180.652 174.043L187.095 204.51L188.562 204.199ZM128.005 210.556L153.585 205.088L153.272 203.621L127.692 209.089L128.005 210.556ZM153.429 205.104H187.829V203.604H153.429V205.104Z" fill="#505E52"/>
<path d="M111.513 181.662V181.618L111.508 181.574L107.658 148.664H114.011L118.789 219.281L120.285 219.293L126.808 141.022H135.395L133.267 167.593L131.073 194.974L131.071 195.004V195.034V364.298H111.513V181.662Z" fill="#E5E9A2" stroke="#505E52" stroke-width="1.5"/>
<path d="M265.592 46.4513C280.881 21.2104 224.958 2 224.958 2C224.958 2 218.07 47.1234 199.501 25.7763C194.815 20.3891 168.017 31.4556 163.652 25.7763C146.379 3.30416 139.285 83.6663 139.285 83.6663L127.536 100.206L119.213 140.523H163.652L196.697 147.759L247.969 165.09C247.969 165.09 297.392 162.319 288.798 115.196C285.15 95.1909 282.704 91.5675 284.195 71.2613C285.188 57.7416 247.968 64.0251 247.968 64.0251C247.968 64.0251 260.491 54.8718 265.592 46.4513Z" fill="#ECECE8"/>
<path d="M224.958 2L224.217 1.88681L224.352 0.998864L225.202 1.29068L224.958 2ZM265.592 46.4513L266.233 46.8399L265.592 46.4513ZM247.968 64.0251L248.093 64.7646L247.525 63.4195L247.968 64.0251ZM284.195 71.2613L284.943 71.3162L284.195 71.2613ZM288.798 115.196L288.06 115.33L288.798 115.196ZM247.969 165.09L248.011 165.839L247.866 165.847L247.728 165.801L247.969 165.09ZM196.697 147.759L196.858 147.026L196.898 147.035L196.938 147.048L196.697 147.759ZM139.285 83.6663L140.032 83.7322L140.014 83.9348L139.897 84.1006L139.285 83.6663ZM163.652 25.7763L164.247 25.3192L163.652 25.7763ZM199.501 25.7763L198.935 26.2685V26.2685L199.501 25.7763ZM127.536 100.206L126.801 100.055L126.833 99.9004L126.924 99.7719L127.536 100.206ZM119.213 140.523V141.273H118.293L118.479 140.371L119.213 140.523ZM163.652 140.523V139.773H163.733L163.812 139.79L163.652 140.523ZM224.958 2C225.202 1.29068 225.202 1.29082 225.203 1.29102C225.203 1.29119 225.204 1.29146 225.205 1.2918C225.207 1.29246 225.21 1.29342 225.213 1.29466C225.221 1.29716 225.231 1.30083 225.245 1.30565C225.273 1.31531 225.314 1.32961 225.367 1.3485C225.475 1.3863 225.633 1.44248 225.838 1.51666C226.248 1.665 226.845 1.88532 227.6 2.17441C229.108 2.75253 231.244 3.60602 233.759 4.70921C238.784 6.91391 245.338 10.1234 251.421 14.1342C257.491 18.1356 263.163 22.9811 266.342 28.4819C269.553 34.0356 270.217 40.2639 266.233 46.8399L264.95 46.0627C268.612 40.0182 268.019 34.3799 265.044 29.2326C262.038 24.0325 256.596 19.3427 250.596 15.3865C244.609 11.4395 238.139 8.26884 233.156 6.08282C230.667 4.99064 228.553 4.14613 227.063 3.57508C226.318 3.28958 225.729 3.07254 225.327 2.92715C225.127 2.85446 224.972 2.79969 224.869 2.76325C224.817 2.74503 224.778 2.73139 224.752 2.72239C224.739 2.71788 224.73 2.71454 224.723 2.71236C224.72 2.71127 224.718 2.71047 224.716 2.70996C224.716 2.70971 224.715 2.70955 224.715 2.70942C224.715 2.70933 224.715 2.70932 224.958 2ZM266.233 46.8399C263.621 51.1518 259.143 55.6071 255.365 58.9571C253.467 60.6391 251.731 62.0557 250.469 63.052C249.838 63.5503 249.324 63.9438 248.968 64.2133C248.79 64.3481 248.652 64.4518 248.557 64.5222C248.51 64.5573 248.473 64.5841 248.449 64.6023C248.436 64.6114 248.427 64.6183 248.421 64.623C248.417 64.6254 248.415 64.6272 248.413 64.6285C248.412 64.6291 248.412 64.6296 248.411 64.6299C248.411 64.6301 248.411 64.6303 248.411 64.6304C248.41 64.6305 248.41 64.6306 247.968 64.0251C247.525 63.4195 247.525 63.4196 247.525 63.4195C247.525 63.4195 247.525 63.4194 247.525 63.4193C247.526 63.4191 247.526 63.4188 247.527 63.4183C247.528 63.4173 247.53 63.4158 247.533 63.4137C247.539 63.4096 247.547 63.4033 247.559 63.3948C247.582 63.3778 247.617 63.3522 247.662 63.3182C247.754 63.2504 247.889 63.1493 248.063 63.0173C248.412 62.7533 248.917 62.366 249.54 61.8746C250.785 60.8915 252.498 59.4935 254.37 57.8346C258.128 54.5029 262.462 50.1713 264.95 46.0627L266.233 46.8399ZM247.968 64.0251C247.843 63.2855 247.843 63.2855 247.844 63.2854C247.844 63.2853 247.844 63.2853 247.845 63.2851C247.846 63.2849 247.848 63.2846 247.851 63.2842C247.856 63.2834 247.863 63.2822 247.872 63.2807C247.89 63.2776 247.918 63.2731 247.954 63.2672C248.026 63.2555 248.132 63.2384 248.269 63.2168C248.545 63.1736 248.947 63.1122 249.459 63.039C250.482 62.8926 251.94 62.6989 253.687 62.5089C257.177 62.1293 261.831 61.7633 266.463 61.8233C271.077 61.8832 275.747 62.3658 279.227 63.7287C280.971 64.412 282.471 65.3371 283.503 66.5923C284.551 67.8666 285.081 69.4384 284.943 71.3162L283.447 71.2064C283.557 69.7042 283.142 68.5149 282.344 67.5451C281.531 66.5562 280.285 65.7542 278.68 65.1253C275.46 63.864 271.011 63.3825 266.444 63.3232C261.895 63.2642 257.306 63.6241 253.849 64.0001C252.122 64.188 250.68 64.3795 249.671 64.5239C249.167 64.5961 248.771 64.6565 248.502 64.6987C248.367 64.7198 248.264 64.7364 248.195 64.7477C248.161 64.7533 248.135 64.7576 248.117 64.7604C248.109 64.7619 248.102 64.7629 248.098 64.7636C248.096 64.764 248.095 64.7642 248.094 64.7644C248.093 64.7645 248.093 64.7645 248.093 64.7646C248.093 64.7646 248.093 64.7646 247.968 64.0251ZM284.943 71.3162C283.461 91.4996 285.876 94.9921 289.536 115.061L288.06 115.33C284.424 95.3897 281.947 91.6353 283.447 71.2064L284.943 71.3162ZM289.536 115.061C291.708 126.973 290.224 136.151 286.716 143.206C283.21 150.255 277.717 155.117 271.984 158.462C266.255 161.805 260.265 163.647 255.719 164.653C253.443 165.157 251.523 165.453 250.169 165.623C249.492 165.708 248.956 165.762 248.588 165.795C248.403 165.811 248.261 165.822 248.164 165.829C248.115 165.832 248.078 165.835 248.052 165.836C248.039 165.837 248.029 165.838 248.022 165.838C248.019 165.839 248.016 165.839 248.014 165.839C248.013 165.839 248.012 165.839 248.012 165.839C248.011 165.839 248.011 165.839 247.969 165.09C247.927 164.341 247.926 164.341 247.927 164.341C247.927 164.341 247.927 164.341 247.927 164.341C247.929 164.341 247.93 164.341 247.933 164.341C247.938 164.341 247.946 164.34 247.957 164.34C247.979 164.338 248.012 164.336 248.057 164.333C248.146 164.326 248.28 164.316 248.456 164.3C248.807 164.269 249.324 164.218 249.982 164.135C251.297 163.97 253.171 163.681 255.395 163.189C259.846 162.203 265.676 160.406 271.228 157.166C276.777 153.928 282.028 149.262 285.373 142.538C288.714 135.82 290.185 126.979 288.06 115.33L289.536 115.061ZM247.728 165.801L196.457 148.469L196.938 147.048L248.209 164.38L247.728 165.801ZM139.285 83.6663C138.538 83.6003 138.538 83.5999 138.538 83.5992C138.538 83.5986 138.538 83.5976 138.538 83.5963C138.539 83.5937 138.539 83.59 138.539 83.585C138.54 83.575 138.542 83.5602 138.543 83.5407C138.547 83.5017 138.552 83.4438 138.559 83.3676C138.573 83.2152 138.594 82.9899 138.622 82.6973C138.679 82.1121 138.764 81.2575 138.878 80.1782C139.106 78.0198 139.451 74.9624 139.92 71.364C140.856 64.1704 142.286 54.8013 144.26 46.1278C146.225 37.4926 148.755 29.4172 151.945 24.908C153.536 22.6595 155.418 21.1179 157.627 21.062C159.838 21.006 162.04 22.448 164.247 25.3192L163.057 26.2333C160.946 23.4865 159.147 22.524 157.665 22.5615C156.179 22.5991 154.673 23.649 153.17 25.7743C150.172 30.0127 147.69 37.8143 145.722 46.4606C143.764 55.0686 142.341 64.3855 141.407 71.5576C140.941 75.142 140.597 78.1873 140.37 80.336C140.256 81.4102 140.172 82.2602 140.116 82.8412C140.088 83.1316 140.067 83.3549 140.053 83.5052C140.046 83.5804 140.041 83.6374 140.037 83.6755C140.036 83.6945 140.034 83.7088 140.033 83.7183C140.033 83.723 140.033 83.7266 140.033 83.7289C140.032 83.73 140.032 83.7309 140.032 83.7315C140.032 83.732 140.032 83.7322 139.285 83.6663ZM164.247 25.3192C164.64 25.8309 165.339 26.2201 166.412 26.4529C167.48 26.6845 168.829 26.7414 170.4 26.6655C173.542 26.5136 177.397 25.8413 181.326 25.1473C185.226 24.4583 189.2 23.7478 192.493 23.5535C194.14 23.4563 195.657 23.4851 196.933 23.7255C198.201 23.9641 199.323 24.4289 200.067 25.284L198.935 26.2685C198.508 25.7768 197.768 25.409 196.656 25.1995C195.552 24.9917 194.173 24.9569 192.581 25.0509C189.395 25.2389 185.517 25.9301 181.587 26.6244C177.685 27.3136 173.729 28.0064 170.472 28.1638C168.843 28.2425 167.346 28.1902 166.095 27.9189C164.849 27.6488 163.755 27.1414 163.057 26.2333L164.247 25.3192ZM200.067 25.284C204.629 30.5291 208.23 31.4279 211.048 30.3653C214.006 29.2495 216.501 25.8625 218.514 21.5746C220.504 17.335 221.932 12.4178 222.863 8.54182C223.327 6.60765 223.666 4.94075 223.889 3.75833C224 3.16725 224.083 2.69758 224.137 2.37653C224.164 2.21602 224.184 2.09268 224.197 2.00992C224.204 1.96854 224.209 1.93731 224.212 1.91665C224.214 1.90632 224.215 1.89863 224.216 1.89364C224.216 1.89114 224.216 1.88932 224.217 1.88818C224.217 1.88761 224.217 1.88727 224.217 1.88699C224.217 1.88681 224.217 1.88681 224.958 2C225.7 2.11319 225.7 2.11353 225.7 2.11405C225.7 2.11445 225.699 2.11513 225.699 2.11593C225.699 2.11753 225.699 2.11982 225.698 2.12278C225.697 2.1287 225.696 2.13732 225.694 2.1486C225.691 2.17115 225.685 2.20432 225.678 2.24767C225.665 2.33436 225.644 2.46179 225.616 2.62656C225.56 2.95607 225.476 3.43501 225.363 4.03608C225.137 5.23795 224.792 6.92954 224.321 8.89214C223.38 12.8097 221.925 17.8391 219.872 22.212C217.842 26.5366 215.133 30.4278 211.577 31.7688C207.881 33.1629 203.657 31.6969 198.935 26.2685L200.067 25.284ZM126.924 99.7719L138.674 83.2319L139.897 84.1006L128.147 100.641L126.924 99.7719ZM118.479 140.371L126.801 100.055L128.27 100.358L119.948 140.674L118.479 140.371ZM196.537 148.491L163.492 141.255L163.812 139.79L196.858 147.026L196.537 148.491ZM163.652 141.273H119.213V139.773H163.652V141.273Z" fill="#505E52"/>
<path d="M195.413 120.843V120.689L195.474 120.547L214.304 76.6526H201.278L186.682 94.071L185.792 95.1322L185.389 93.8075L177.075 66.4774H166.259L171.495 138.595L171.497 138.622V138.65V364.298H195.413V120.843Z" stroke="#505E52" stroke-width="1.5"/>
<path d="M351.356 153.508C351.356 153.508 328.127 132.59 313.026 140.947C307.907 143.78 299.248 112.366 293.641 113.093C285.477 114.152 286.138 182.753 271.611 145.862C253.548 99.9867 236.805 162.792 215.657 140.947C194.95 137.67 204.643 223.958 218.301 211.397C231.959 198.836 234.162 219.043 234.162 219.043L210.437 259.248H280.74L341.039 227.665C397.59 232.311 381.968 219.043 351.356 153.508Z" fill="#F1F3CB"/>
<path d="M313.026 140.947L312.663 140.29L313.026 140.947ZM351.356 153.508L351.857 152.95L351.971 153.052L352.035 153.19L351.356 153.508ZM341.039 227.665L340.691 227.001L340.884 226.9L341.1 226.918L341.039 227.665ZM280.74 259.248L281.088 259.912L280.924 259.998H280.74V259.248ZM210.437 259.248V259.998H209.124L209.791 258.867L210.437 259.248ZM234.162 219.043L234.907 218.962L234.934 219.21L234.808 219.424L234.162 219.043ZM218.301 211.397L218.809 211.949L218.301 211.397ZM215.657 140.947L215.775 140.206L216.022 140.245L216.196 140.425L215.657 140.947ZM271.611 145.862L270.914 146.136L271.611 145.862ZM293.641 113.093L293.544 112.35L293.641 113.093ZM312.663 140.29C316.636 138.092 321.109 137.84 325.521 138.646C329.929 139.451 334.326 141.321 338.212 143.434C342.102 145.55 345.51 147.927 347.943 149.772C349.161 150.695 350.136 151.487 350.809 152.05C351.145 152.331 351.406 152.555 351.583 152.709C351.672 152.786 351.74 152.846 351.786 152.886C351.809 152.907 351.826 152.922 351.838 152.933C351.844 152.938 351.849 152.942 351.852 152.945C351.854 152.947 351.855 152.948 351.856 152.949C351.856 152.949 351.857 152.95 351.857 152.95C351.857 152.95 351.857 152.95 351.356 153.508C350.854 154.065 350.854 154.065 350.854 154.065C350.854 154.065 350.853 154.065 350.853 154.064C350.853 154.064 350.852 154.063 350.851 154.062C350.848 154.06 350.844 154.056 350.839 154.052C350.829 154.042 350.813 154.028 350.791 154.009C350.748 153.971 350.684 153.915 350.599 153.841C350.428 153.692 350.175 153.475 349.847 153.2C349.19 152.651 348.233 151.874 347.037 150.967C344.643 149.152 341.3 146.821 337.495 144.752C333.686 142.681 329.445 140.888 325.251 140.121C321.06 139.356 316.967 139.623 313.39 141.603L312.663 140.29ZM341.387 228.33L281.088 259.912L280.392 258.584L340.691 227.001L341.387 228.33ZM280.74 259.998H210.437V258.498H280.74V259.998ZM209.791 258.867L233.516 218.662L234.808 219.424L211.083 259.629L209.791 258.867ZM234.162 219.043C233.416 219.124 233.416 219.125 233.416 219.125C233.416 219.125 233.416 219.125 233.416 219.125C233.416 219.124 233.416 219.124 233.416 219.123C233.416 219.121 233.416 219.118 233.415 219.114C233.414 219.106 233.413 219.093 233.411 219.076C233.406 219.041 233.4 218.988 233.39 218.919C233.372 218.781 233.343 218.577 233.301 218.321C233.216 217.809 233.081 217.088 232.876 216.262C232.465 214.597 231.787 212.557 230.724 210.918C229.662 209.28 228.29 208.149 226.496 208.042C224.669 207.932 222.164 208.863 218.809 211.949L217.793 210.845C221.267 207.651 224.159 206.398 226.586 206.544C229.047 206.692 230.787 208.258 231.982 210.102C233.177 211.944 233.904 214.171 234.332 215.902C234.548 216.774 234.691 217.534 234.781 218.078C234.825 218.35 234.857 218.568 234.877 218.719C234.887 218.795 234.895 218.854 234.9 218.895C234.902 218.916 234.904 218.932 234.905 218.943C234.906 218.948 234.906 218.953 234.907 218.956C234.907 218.958 234.907 218.959 234.907 218.96C234.907 218.96 234.907 218.961 234.907 218.961C234.907 218.962 234.907 218.962 234.162 219.043ZM218.809 211.949C217.871 212.812 216.88 213.314 215.847 213.388C214.808 213.463 213.839 213.098 212.966 212.442C211.261 211.16 209.78 208.666 208.517 205.506C205.972 199.136 204.118 189.547 203.344 179.712C202.57 169.877 202.869 159.703 204.685 152.163C205.591 148.4 206.892 145.217 208.69 143.067C210.518 140.881 212.881 139.748 215.775 140.206L215.54 141.687C213.257 141.326 211.393 142.173 209.841 144.029C208.259 145.922 207.027 148.845 206.143 152.514C204.379 159.839 204.072 169.837 204.84 179.595C205.608 189.353 207.444 198.776 209.91 204.95C211.154 208.061 212.509 210.222 213.867 211.243C214.526 211.738 215.146 211.935 215.739 211.892C216.339 211.849 217.024 211.553 217.793 210.845L218.809 211.949ZM272.309 145.587C274.12 150.185 275.662 153.052 276.968 154.607C277.621 155.384 278.163 155.77 278.589 155.92C278.974 156.057 279.305 156.016 279.649 155.81C280.027 155.584 280.441 155.143 280.872 154.433C281.299 153.731 281.71 152.821 282.108 151.728C282.904 149.543 283.612 146.713 284.278 143.554C284.943 140.4 285.559 136.948 286.175 133.521C286.79 130.101 287.405 126.706 288.065 123.688C288.723 120.678 289.435 118.001 290.253 116.031C290.662 115.047 291.113 114.2 291.625 113.569C292.133 112.942 292.766 112.451 293.544 112.35L293.737 113.837C293.495 113.869 293.176 114.037 292.79 114.514C292.407 114.986 292.021 115.685 291.639 116.606C290.874 118.447 290.185 121.014 289.53 124.008C288.877 126.994 288.267 130.362 287.651 133.787C287.037 137.206 286.416 140.683 285.746 143.864C285.076 147.041 284.35 149.954 283.518 152.241C283.101 153.386 282.65 154.395 282.154 155.212C281.663 156.02 281.095 156.694 280.419 157.098C279.708 157.523 278.913 157.626 278.09 157.335C277.306 157.058 276.555 156.447 275.82 155.571C274.349 153.821 272.735 150.762 270.914 146.136L272.309 145.587ZM293.544 112.35C294.61 112.212 295.584 112.847 296.404 113.668C297.252 114.516 298.108 115.735 298.958 117.151C300.662 119.989 302.448 123.799 304.194 127.489C305.954 131.207 307.67 134.797 309.258 137.284C310.057 138.534 310.783 139.44 311.42 139.946C312.053 140.449 312.41 140.43 312.663 140.29L313.39 141.603C312.363 142.171 311.33 141.791 310.487 141.121C309.649 140.454 308.815 139.376 307.994 138.091C306.344 135.508 304.585 131.821 302.839 128.131C301.079 124.412 299.329 120.682 297.672 117.923C296.843 116.541 296.062 115.447 295.343 114.728C294.597 113.981 294.074 113.794 293.737 113.837L293.544 112.35ZM216.196 140.425C218.759 143.072 221.2 144.382 223.528 144.81C225.858 145.239 228.164 144.8 230.483 143.792C232.81 142.779 235.118 141.207 237.433 139.413C239.78 137.593 241.996 135.66 244.324 133.806C246.605 131.99 248.908 130.323 251.225 129.228C253.548 128.131 255.94 127.582 258.372 128.077C260.807 128.573 263.166 130.093 265.468 132.9C267.765 135.7 270.037 139.815 272.309 145.587L270.914 146.136C268.67 140.439 266.467 136.483 264.308 133.851C262.155 131.226 260.077 129.955 258.072 129.547C256.064 129.138 254.012 129.571 251.866 130.585C249.713 131.602 247.521 133.178 245.258 134.98C243.042 136.744 240.667 138.804 238.352 140.598C236.005 142.418 233.58 144.08 231.081 145.167C228.574 146.257 225.961 146.783 223.257 146.286C220.551 145.788 217.843 144.282 215.119 141.468L216.196 140.425ZM352.035 153.19C355.859 161.376 359.448 168.746 362.694 175.37C365.939 181.992 368.843 187.876 371.289 193.077C373.735 198.276 375.732 202.812 377.16 206.74C378.585 210.662 379.46 214.021 379.632 216.859C379.805 219.708 379.272 222.09 377.821 223.98C376.377 225.86 374.103 227.147 371.008 227.978C364.854 229.632 355.101 229.573 340.978 228.413L341.1 226.918C355.253 228.08 364.753 228.105 370.619 226.53C373.534 225.746 375.46 224.59 376.632 223.066C377.796 221.55 378.294 219.565 378.135 216.95C377.975 214.324 377.157 211.122 375.75 207.252C374.346 203.389 372.372 198.903 369.932 193.715C367.492 188.528 364.596 182.66 361.347 176.03C358.1 169.404 354.506 162.023 350.676 153.825L352.035 153.19Z" fill="#505E52"/>
<path d="M280.102 280.647V164.032H273.945L269.347 229.045L267.872 229.176L248.349 151.984L241.979 158.618L257.494 219.338L257.518 219.429V219.523V362.594H280.102V325.232V325.126L280.132 325.024L318.178 192.947H308.337L281.57 280.866L280.102 280.647Z" fill="white" stroke="#505E52" stroke-width="1.5"/>
<path d="M265.592 46.4513C280.881 21.2104 224.958 2 224.958 2C224.958 2 218.07 47.1234 199.501 25.7763C194.815 20.3891 168.017 31.4556 163.652 25.7763C146.379 3.30416 139.285 83.6663 139.285 83.6663L127.536 100.206L119.213 140.523H163.652L196.697 147.759L247.969 165.09C247.969 165.09 297.392 162.319 288.798 115.196C285.15 95.1909 282.704 91.5675 284.195 71.2613C285.188 57.7416 247.968 64.0251 247.968 64.0251C247.968 64.0251 260.491 54.8718 265.592 46.4513Z" fill="#CDD559"/>
<path d="M224.958 2L224.217 1.88681L224.352 0.998864L225.202 1.29068L224.958 2ZM265.592 46.4513L266.233 46.8399L265.592 46.4513ZM247.968 64.0251L248.093 64.7646L247.525 63.4195L247.968 64.0251ZM284.195 71.2613L284.943 71.3162L284.195 71.2613ZM288.798 115.196L288.06 115.33L288.798 115.196ZM247.969 165.09L248.011 165.839L247.866 165.847L247.728 165.801L247.969 165.09ZM196.697 147.759L196.858 147.026L196.898 147.035L196.938 147.048L196.697 147.759ZM139.285 83.6663L140.032 83.7322L140.014 83.9348L139.897 84.1006L139.285 83.6663ZM163.652 25.7763L164.247 25.3192L163.652 25.7763ZM199.501 25.7763L198.935 26.2685V26.2685L199.501 25.7763ZM127.536 100.206L126.801 100.055L126.833 99.9004L126.924 99.7719L127.536 100.206ZM119.213 140.523V141.273H118.293L118.479 140.371L119.213 140.523ZM163.652 140.523V139.773H163.733L163.812 139.79L163.652 140.523ZM224.958 2C225.202 1.29068 225.202 1.29082 225.203 1.29102C225.203 1.29119 225.204 1.29146 225.205 1.2918C225.207 1.29246 225.21 1.29342 225.213 1.29466C225.221 1.29716 225.231 1.30083 225.245 1.30565C225.273 1.31531 225.314 1.32961 225.367 1.3485C225.475 1.3863 225.633 1.44248 225.838 1.51666C226.248 1.665 226.845 1.88532 227.6 2.17441C229.108 2.75253 231.244 3.60602 233.759 4.70921C238.784 6.91391 245.338 10.1234 251.421 14.1342C257.491 18.1356 263.163 22.9811 266.342 28.4819C269.553 34.0356 270.217 40.2639 266.233 46.8399L264.95 46.0627C268.612 40.0182 268.019 34.3799 265.044 29.2326C262.038 24.0325 256.596 19.3427 250.596 15.3865C244.609 11.4395 238.139 8.26884 233.156 6.08282C230.667 4.99064 228.553 4.14613 227.063 3.57508C226.318 3.28958 225.729 3.07254 225.327 2.92715C225.127 2.85446 224.972 2.79969 224.869 2.76325C224.817 2.74503 224.778 2.73139 224.752 2.72239C224.739 2.71788 224.73 2.71454 224.723 2.71236C224.72 2.71127 224.718 2.71047 224.716 2.70996C224.716 2.70971 224.715 2.70955 224.715 2.70942C224.715 2.70933 224.715 2.70932 224.958 2ZM266.233 46.8399C263.621 51.1518 259.143 55.6071 255.365 58.9571C253.467 60.6391 251.731 62.0557 250.469 63.052C249.838 63.5503 249.324 63.9438 248.968 64.2133C248.79 64.3481 248.652 64.4518 248.557 64.5222C248.51 64.5573 248.473 64.5841 248.449 64.6023C248.436 64.6114 248.427 64.6183 248.421 64.623C248.417 64.6254 248.415 64.6272 248.413 64.6285C248.412 64.6291 248.412 64.6296 248.411 64.6299C248.411 64.6301 248.411 64.6303 248.411 64.6304C248.41 64.6305 248.41 64.6306 247.968 64.0251C247.525 63.4195 247.525 63.4196 247.525 63.4195C247.525 63.4195 247.525 63.4194 247.525 63.4193C247.526 63.4191 247.526 63.4188 247.527 63.4183C247.528 63.4173 247.53 63.4158 247.533 63.4137C247.539 63.4096 247.547 63.4033 247.559 63.3948C247.582 63.3778 247.617 63.3522 247.662 63.3182C247.754 63.2504 247.889 63.1493 248.063 63.0173C248.412 62.7533 248.917 62.366 249.54 61.8746C250.785 60.8915 252.498 59.4935 254.37 57.8346C258.128 54.5029 262.462 50.1713 264.95 46.0627L266.233 46.8399ZM247.968 64.0251C247.843 63.2855 247.843 63.2855 247.844 63.2854C247.844 63.2853 247.844 63.2853 247.845 63.2851C247.846 63.2849 247.848 63.2846 247.851 63.2842C247.856 63.2834 247.863 63.2822 247.872 63.2807C247.89 63.2776 247.918 63.2731 247.954 63.2672C248.026 63.2555 248.132 63.2384 248.269 63.2168C248.545 63.1736 248.947 63.1122 249.459 63.039C250.482 62.8926 251.94 62.6989 253.687 62.5089C257.177 62.1293 261.831 61.7633 266.463 61.8233C271.077 61.8832 275.747 62.3658 279.227 63.7287C280.971 64.412 282.471 65.3371 283.503 66.5923C284.551 67.8666 285.081 69.4384 284.943 71.3162L283.447 71.2064C283.557 69.7042 283.142 68.5149 282.344 67.5451C281.531 66.5562 280.285 65.7542 278.68 65.1253C275.46 63.864 271.011 63.3825 266.444 63.3232C261.895 63.2642 257.306 63.6241 253.849 64.0001C252.122 64.188 250.68 64.3795 249.671 64.5239C249.167 64.5961 248.771 64.6565 248.502 64.6987C248.367 64.7198 248.264 64.7364 248.195 64.7477C248.161 64.7533 248.135 64.7576 248.117 64.7604C248.109 64.7619 248.102 64.7629 248.098 64.7636C248.096 64.764 248.095 64.7642 248.094 64.7644C248.093 64.7645 248.093 64.7645 248.093 64.7646C248.093 64.7646 248.093 64.7646 247.968 64.0251ZM284.943 71.3162C283.461 91.4996 285.876 94.9921 289.536 115.061L288.06 115.33C284.424 95.3897 281.947 91.6353 283.447 71.2064L284.943 71.3162ZM289.536 115.061C291.708 126.973 290.224 136.151 286.716 143.206C283.21 150.255 277.717 155.117 271.984 158.462C266.255 161.805 260.265 163.647 255.719 164.653C253.443 165.157 251.523 165.453 250.169 165.623C249.492 165.708 248.956 165.762 248.588 165.795C248.403 165.811 248.261 165.822 248.164 165.829C248.115 165.832 248.078 165.835 248.052 165.836C248.039 165.837 248.029 165.838 248.022 165.838C248.019 165.839 248.016 165.839 248.014 165.839C248.013 165.839 248.012 165.839 248.012 165.839C248.011 165.839 248.011 165.839 247.969 165.09C247.927 164.341 247.926 164.341 247.927 164.341C247.927 164.341 247.927 164.341 247.927 164.341C247.929 164.341 247.93 164.341 247.933 164.341C247.938 164.341 247.946 164.34 247.957 164.34C247.979 164.338 248.012 164.336 248.057 164.333C248.146 164.326 248.28 164.316 248.456 164.3C248.807 164.269 249.324 164.218 249.982 164.135C251.297 163.97 253.171 163.681 255.395 163.189C259.846 162.203 265.676 160.406 271.228 157.166C276.777 153.928 282.028 149.262 285.373 142.538C288.714 135.82 290.185 126.979 288.06 115.33L289.536 115.061ZM247.728 165.801L196.457 148.469L196.938 147.048L248.209 164.38L247.728 165.801ZM139.285 83.6663C138.538 83.6003 138.538 83.5999 138.538 83.5992C138.538 83.5986 138.538 83.5976 138.538 83.5963C138.539 83.5937 138.539 83.59 138.539 83.585C138.54 83.575 138.542 83.5602 138.543 83.5407C138.547 83.5017 138.552 83.4438 138.559 83.3676C138.573 83.2152 138.594 82.9899 138.622 82.6973C138.679 82.1121 138.764 81.2575 138.878 80.1782C139.106 78.0198 139.451 74.9624 139.92 71.364C140.856 64.1704 142.286 54.8013 144.26 46.1278C146.225 37.4926 148.755 29.4172 151.945 24.908C153.536 22.6595 155.418 21.1179 157.627 21.062C159.838 21.006 162.04 22.448 164.247 25.3192L163.057 26.2333C160.946 23.4865 159.147 22.524 157.665 22.5615C156.179 22.5991 154.673 23.649 153.17 25.7743C150.172 30.0127 147.69 37.8143 145.722 46.4606C143.764 55.0686 142.341 64.3855 141.407 71.5576C140.941 75.142 140.597 78.1873 140.37 80.336C140.256 81.4102 140.172 82.2602 140.116 82.8412C140.088 83.1316 140.067 83.3549 140.053 83.5052C140.046 83.5804 140.041 83.6374 140.037 83.6755C140.036 83.6945 140.034 83.7088 140.033 83.7183C140.033 83.723 140.033 83.7266 140.033 83.7289C140.032 83.73 140.032 83.7309 140.032 83.7315C140.032 83.732 140.032 83.7322 139.285 83.6663ZM164.247 25.3192C164.64 25.8309 165.339 26.2201 166.412 26.4529C167.48 26.6845 168.829 26.7414 170.4 26.6655C173.542 26.5136 177.397 25.8413 181.326 25.1473C185.226 24.4583 189.2 23.7478 192.493 23.5535C194.14 23.4563 195.657 23.4851 196.933 23.7255C198.201 23.9641 199.323 24.4289 200.067 25.284L198.935 26.2685C198.508 25.7768 197.768 25.409 196.656 25.1995C195.552 24.9917 194.173 24.9569 192.581 25.0509C189.395 25.2389 185.517 25.9301 181.587 26.6244C177.685 27.3136 173.729 28.0064 170.472 28.1638C168.843 28.2425 167.346 28.1902 166.095 27.9189C164.849 27.6488 163.755 27.1414 163.057 26.2333L164.247 25.3192ZM200.067 25.284C204.629 30.5291 208.23 31.4279 211.048 30.3653C214.006 29.2495 216.501 25.8625 218.514 21.5746C220.504 17.335 221.932 12.4178 222.863 8.54182C223.327 6.60765 223.666 4.94075 223.889 3.75833C224 3.16725 224.083 2.69758 224.137 2.37653C224.164 2.21602 224.184 2.09268 224.197 2.00992C224.204 1.96854 224.209 1.93731 224.212 1.91665C224.214 1.90632 224.215 1.89863 224.216 1.89364C224.216 1.89114 224.216 1.88932 224.217 1.88818C224.217 1.88761 224.217 1.88727 224.217 1.88699C224.217 1.88681 224.217 1.88681 224.958 2C225.7 2.11319 225.7 2.11353 225.7 2.11405C225.7 2.11445 225.699 2.11513 225.699 2.11593C225.699 2.11753 225.699 2.11982 225.698 2.12278C225.697 2.1287 225.696 2.13732 225.694 2.1486C225.691 2.17115 225.685 2.20432 225.678 2.24767C225.665 2.33436 225.644 2.46179 225.616 2.62656C225.56 2.95607 225.476 3.43501 225.363 4.03608C225.137 5.23795 224.792 6.92954 224.321 8.89214C223.38 12.8097 221.925 17.8391 219.872 22.212C217.842 26.5366 215.133 30.4278 211.577 31.7688C207.881 33.1629 203.657 31.6969 198.935 26.2685L200.067 25.284ZM126.924 99.7719L138.674 83.2319L139.897 84.1006L128.147 100.641L126.924 99.7719ZM118.479 140.371L126.801 100.055L128.27 100.358L119.948 140.674L118.479 140.371ZM196.537 148.491L163.492 141.255L163.812 139.79L196.858 147.026L196.537 148.491ZM163.652 141.273H119.213V139.773H163.652V141.273Z" fill="#505E52"/>
<path d="M195.413 120.843V120.689L195.474 120.547L214.304 76.6526H201.278L186.682 94.071L185.792 95.1322L185.389 93.8075L177.075 66.4774H166.259L171.495 138.595L171.497 138.622V138.65V364.298H195.413V120.843Z" fill="#EFF0F0" stroke="#505E52" stroke-width="1.5"/>
<path d="M351.356 153.508C351.356 153.508 328.127 132.59 313.026 140.947C307.907 143.78 299.248 112.366 293.641 113.093C285.477 114.152 286.138 182.753 271.611 145.862C253.548 99.9867 236.805 162.792 215.657 140.947C194.95 137.67 204.643 223.958 218.301 211.397C231.959 198.836 234.162 219.043 234.162 219.043L210.437 259.248H280.74L341.039 227.665C397.59 232.311 381.968 219.043 351.356 153.508Z" fill="#F1F3CB"/>
<path d="M313.026 140.947L312.663 140.29L313.026 140.947ZM351.356 153.508L351.857 152.95L351.971 153.052L352.035 153.19L351.356 153.508ZM341.039 227.665L340.691 227.001L340.884 226.9L341.1 226.918L341.039 227.665ZM280.74 259.248L281.088 259.912L280.924 259.998H280.74V259.248ZM210.437 259.248V259.998H209.124L209.791 258.867L210.437 259.248ZM234.162 219.043L234.907 218.962L234.934 219.21L234.808 219.424L234.162 219.043ZM218.301 211.397L218.809 211.949L218.301 211.397ZM215.657 140.947L215.775 140.206L216.022 140.245L216.196 140.425L215.657 140.947ZM271.611 145.862L270.914 146.136L271.611 145.862ZM293.641 113.093L293.544 112.35L293.641 113.093ZM312.663 140.29C316.636 138.092 321.109 137.84 325.521 138.646C329.929 139.451 334.326 141.321 338.212 143.434C342.102 145.55 345.51 147.927 347.943 149.772C349.161 150.695 350.136 151.487 350.809 152.05C351.145 152.331 351.406 152.555 351.583 152.709C351.672 152.786 351.74 152.846 351.786 152.886C351.809 152.907 351.826 152.922 351.838 152.933C351.844 152.938 351.849 152.942 351.852 152.945C351.854 152.947 351.855 152.948 351.856 152.949C351.856 152.949 351.857 152.95 351.857 152.95C351.857 152.95 351.857 152.95 351.356 153.508C350.854 154.065 350.854 154.065 350.854 154.065C350.854 154.065 350.853 154.065 350.853 154.064C350.853 154.064 350.852 154.063 350.851 154.062C350.848 154.06 350.844 154.056 350.839 154.052C350.829 154.042 350.813 154.028 350.791 154.009C350.748 153.971 350.684 153.915 350.599 153.841C350.428 153.692 350.175 153.475 349.847 153.2C349.19 152.651 348.233 151.874 347.037 150.967C344.643 149.152 341.3 146.821 337.495 144.752C333.686 142.681 329.445 140.888 325.251 140.121C321.06 139.356 316.967 139.623 313.39 141.603L312.663 140.29ZM341.387 228.33L281.088 259.912L280.392 258.584L340.691 227.001L341.387 228.33ZM280.74 259.998H210.437V258.498H280.74V259.998ZM209.791 258.867L233.516 218.662L234.808 219.424L211.083 259.629L209.791 258.867ZM234.162 219.043C233.416 219.124 233.416 219.125 233.416 219.125C233.416 219.125 233.416 219.125 233.416 219.125C233.416 219.124 233.416 219.124 233.416 219.123C233.416 219.121 233.416 219.118 233.415 219.114C233.414 219.106 233.413 219.093 233.411 219.076C233.406 219.041 233.4 218.988 233.39 218.919C233.372 218.781 233.343 218.577 233.301 218.321C233.216 217.809 233.081 217.088 232.876 216.262C232.465 214.597 231.787 212.557 230.724 210.918C229.662 209.28 228.29 208.149 226.496 208.042C224.669 207.932 222.164 208.863 218.809 211.949L217.793 210.845C221.267 207.651 224.159 206.398 226.586 206.544C229.047 206.692 230.787 208.258 231.982 210.102C233.177 211.944 233.904 214.171 234.332 215.902C234.548 216.774 234.691 217.534 234.781 218.078C234.825 218.35 234.857 218.568 234.877 218.719C234.887 218.795 234.895 218.854 234.9 218.895C234.902 218.916 234.904 218.932 234.905 218.943C234.906 218.948 234.906 218.953 234.907 218.956C234.907 218.958 234.907 218.959 234.907 218.96C234.907 218.96 234.907 218.961 234.907 218.961C234.907 218.962 234.907 218.962 234.162 219.043ZM218.809 211.949C217.871 212.812 216.88 213.314 215.847 213.388C214.808 213.463 213.839 213.098 212.966 212.442C211.261 211.16 209.78 208.666 208.517 205.506C205.972 199.136 204.118 189.547 203.344 179.712C202.57 169.877 202.869 159.703 204.685 152.163C205.591 148.4 206.892 145.217 208.69 143.067C210.518 140.881 212.881 139.748 215.775 140.206L215.54 141.687C213.257 141.326 211.393 142.173 209.841 144.029C208.259 145.922 207.027 148.845 206.143 152.514C204.379 159.839 204.072 169.837 204.84 179.595C205.608 189.353 207.444 198.776 209.91 204.95C211.154 208.061 212.509 210.222 213.867 211.243C214.526 211.738 215.146 211.935 215.739 211.892C216.339 211.849 217.024 211.553 217.793 210.845L218.809 211.949ZM272.309 145.587C274.12 150.185 275.662 153.052 276.968 154.607C277.621 155.384 278.163 155.77 278.589 155.92C278.974 156.057 279.305 156.016 279.649 155.81C280.027 155.584 280.441 155.143 280.872 154.433C281.299 153.731 281.71 152.821 282.108 151.728C282.904 149.543 283.612 146.713 284.278 143.554C284.943 140.4 285.559 136.948 286.175 133.521C286.79 130.101 287.405 126.706 288.065 123.688C288.723 120.678 289.435 118.001 290.253 116.031C290.662 115.047 291.113 114.2 291.625 113.569C292.133 112.942 292.766 112.451 293.544 112.35L293.737 113.837C293.495 113.869 293.176 114.037 292.79 114.514C292.407 114.986 292.021 115.685 291.639 116.606C290.874 118.447 290.185 121.014 289.53 124.008C288.877 126.994 288.267 130.362 287.651 133.787C287.037 137.206 286.416 140.683 285.746 143.864C285.076 147.041 284.35 149.954 283.518 152.241C283.101 153.386 282.65 154.395 282.154 155.212C281.663 156.02 281.095 156.694 280.419 157.098C279.708 157.523 278.913 157.626 278.09 157.335C277.306 157.058 276.555 156.447 275.82 155.571C274.349 153.821 272.735 150.762 270.914 146.136L272.309 145.587ZM293.544 112.35C294.61 112.212 295.584 112.847 296.404 113.668C297.252 114.516 298.108 115.735 298.958 117.151C300.662 119.989 302.448 123.799 304.194 127.489C305.954 131.207 307.67 134.797 309.258 137.284C310.057 138.534 310.783 139.44 311.42 139.946C312.053 140.449 312.41 140.43 312.663 140.29L313.39 141.603C312.363 142.171 311.33 141.791 310.487 141.121C309.649 140.454 308.815 139.376 307.994 138.091C306.344 135.508 304.585 131.821 302.839 128.131C301.079 124.412 299.329 120.682 297.672 117.923C296.843 116.541 296.062 115.447 295.343 114.728C294.597 113.981 294.074 113.794 293.737 113.837L293.544 112.35ZM216.196 140.425C218.759 143.072 221.2 144.382 223.528 144.81C225.858 145.239 228.164 144.8 230.483 143.792C232.81 142.779 235.118 141.207 237.433 139.413C239.78 137.593 241.996 135.66 244.324 133.806C246.605 131.99 248.908 130.323 251.225 129.228C253.548 128.131 255.94 127.582 258.372 128.077C260.807 128.573 263.166 130.093 265.468 132.9C267.765 135.7 270.037 139.815 272.309 145.587L270.914 146.136C268.67 140.439 266.467 136.483 264.308 133.851C262.155 131.226 260.077 129.955 258.072 129.547C256.064 129.138 254.012 129.571 251.866 130.585C249.713 131.602 247.521 133.178 245.258 134.98C243.042 136.744 240.667 138.804 238.352 140.598C236.005 142.418 233.58 144.08 231.081 145.167C228.574 146.257 225.961 146.783 223.257 146.286C220.551 145.788 217.843 144.282 215.119 141.468L216.196 140.425ZM352.035 153.19C355.859 161.376 359.448 168.746 362.694 175.37C365.939 181.992 368.843 187.876 371.289 193.077C373.735 198.276 375.732 202.812 377.16 206.74C378.585 210.662 379.46 214.021 379.632 216.859C379.805 219.708 379.272 222.09 377.821 223.98C376.377 225.86 374.103 227.147 371.008 227.978C364.854 229.632 355.101 229.573 340.978 228.413L341.1 226.918C355.253 228.08 364.753 228.105 370.619 226.53C373.534 225.746 375.46 224.59 376.632 223.066C377.796 221.55 378.294 219.565 378.135 216.95C377.975 214.324 377.157 211.122 375.75 207.252C374.346 203.389 372.372 198.903 369.932 193.715C367.492 188.528 364.596 182.66 361.347 176.03C358.1 169.404 354.506 162.023 350.676 153.825L352.035 153.19Z" fill="#505E52"/>
<path d="M280.102 280.647V164.032H273.945L269.347 229.045L267.872 229.176L248.349 151.984L241.979 158.618L257.494 219.338L257.518 219.429V219.523V362.594H280.102V325.232V325.126L280.132 325.024L318.178 192.947H308.337L281.57 280.866L280.102 280.647Z" fill="white" stroke="#505E52" stroke-width="1.5"/>
<rect x="32.5" y="132.5" width="18" height="232" fill="#E5E9A2" stroke="#1C211C"/>
<path d="M82.9339 209.17V209.029L82.8827 208.897L72.0975 181.243H79.0479L87.4211 192.233L88.3374 193.436L88.7405 191.979L93.5057 174.75H99.1989L96.1799 220.483L96.1783 220.508V220.533V364.25H82.9339V287.085V209.17Z" fill="#F1F3CB" stroke="#505E52" stroke-width="1.5"/>
</svg>
