<svg width="443" height="411" viewBox="0 0 443 411" fill="none" xmlns="http://www.w3.org/2000/svg">
<path d="M345 88.5C345 88.5 370.104 58.3723 375.5 71C378.831 78.7956 370 92 370 92L345 121.5L332 129L345 88.5Z" fill="#CDD559" stroke="#505E52" stroke-width="2"/>
<path d="M356.297 30.8711L365.003 70.4822L339.621 113.03C339.621 113.03 321.607 122.82 309.181 122.368C289.34 121.646 266.859 94.1967 266.859 94.1967L319.648 78.2464C319.648 78.2464 277.039 23.0815 301.186 8.73514C321.125 -3.11163 356.297 30.8711 356.297 30.8711Z" fill="#F1F3CB" stroke="#505E52" stroke-width="2"/>
<path d="M365.991 89.9045L351.158 113.883L347.745 143.1L344.332 172.317C344.332 172.317 368.653 170.054 374.834 158.536C379.83 149.228 374.254 131.491 374.254 131.491C374.254 131.491 397.004 133.693 409.713 128.031C427.069 120.299 441.242 90.974 441.242 90.974L365.991 89.9045Z" fill="#F1F3CB" stroke="#505E52" stroke-width="2"/>
<path d="M339.872 126.909C315.062 187.038 229.675 203.976 167 188C148.971 183.404 161.018 150.206 244.5 163C373.672 182.796 116 367 -2.49996 319" stroke="#505E52" stroke-width="2"/>
</svg>
